<svg width="1000" height="402" viewBox="0 0 1000 402" fill="none" xmlns="http://www.w3.org/2000/svg">
<g clip-path="url(#clip0_612_31)">
<path d="M0 373.217H194.433V401.05H0V373.217Z" fill="black"/>
<path d="M0 319.83H194.433V347.761H0V319.83Z" fill="black"/>
<path d="M55.4678 266.541H138.867V294.473H55.4678V266.541Z" fill="black"/>
<path d="M55.4678 213.253H138.867V241.185H55.4678V213.253Z" fill="black"/>
<path d="M55.4678 159.964H138.867V187.896H55.4678V159.964Z" fill="black"/>
<path d="M55.4678 106.577H138.867V134.509H55.4678V106.577Z" fill="black"/>
<path d="M194.433 53.288H0V81.22H194.433V53.288Z" fill="black"/>
<path d="M194.433 0H0V27.932H194.433V0Z" fill="black"/>
<path d="M222.167 347.761H521.196C526.247 339.144 530.011 329.734 532.29 319.829H222.167V347.761Z" fill="black"/>
<path d="M497.92 213.253H277.734V241.185H521.197C514.857 230.487 507.032 221.078 497.92 213.253Z" fill="black"/>
<path d="M277.734 159.964V187.896H497.92C507.231 180.071 515.055 170.661 521.197 159.964H277.734Z" fill="black"/>
<path d="M521.197 53.288H222.167V81.22H532.29C529.715 71.315 525.951 61.906 521.197 53.288Z" fill="black"/>
<path d="M429.279 0H222.167V27.932H500.693C482.072 10.697 456.815 0 429.279 0Z" fill="black"/>
<path d="M361.034 106.577H277.734V134.509H361.034V106.577Z" fill="black"/>
<path d="M444.433 134.509H531.596C534.072 125.595 535.36 116.185 535.36 106.577H444.433V134.509Z" fill="black"/>
<path d="M277.734 266.541H361.034V294.473H277.734V266.541Z" fill="black"/>
<path d="M444.433 266.541V294.473H535.36C535.36 284.865 534.072 275.456 531.596 266.541H444.433Z" fill="black"/>
<path d="M222.167 400.852L429.279 401.149C457.013 401.149 482.072 390.452 500.792 373.217H222.167V400.852Z" fill="black"/>
<path d="M555.567 373.217H694.433V401.05H555.567V373.217Z" fill="black"/>
<path d="M555.567 319.83H694.433V347.761H555.567V319.83Z" fill="black"/>
<path d="M611.034 266.541H694.433V294.473H611.034V266.541Z" fill="black"/>
<path d="M611.034 213.253H694.433V241.185H611.034V213.253Z" fill="black"/>
<path d="M733.063 53.288H555.567V81.22H742.67L733.063 53.288Z" fill="black"/>
<path d="M714.639 0H555.567V27.932H724.247L714.639 0Z" fill="black"/>
<path d="M861.034 373.217H1000V401.05H861.034V373.217Z" fill="black"/>
<path d="M861.034 319.83H1000V347.761H861.034V319.83Z" fill="black"/>
<path d="M861.034 266.541H944.433V294.473H861.034V266.541Z" fill="black"/>
<path d="M861.034 213.253H944.433V241.185H861.034V213.253Z" fill="black"/>
<path d="M861.034 187.896H944.433V159.964H861.034H785.559L777.734 182.548L769.909 159.964H694.433H611.034V187.896H694.433V162.242L703.249 187.896H852.219L861.034 162.242V187.896Z" fill="black"/>
<path d="M944.433 106.577H803.982L794.374 134.509H944.433V106.577Z" fill="black"/>
<path d="M840.927 0L831.319 27.932H1000V0H840.927Z" fill="black"/>
<path d="M777.734 400.852L787.341 373.217H768.126L777.734 400.852Z" fill="black"/>
<path d="M759.312 347.761H796.158L806.063 319.83H749.506L759.312 347.761Z" fill="black"/>
<path d="M740.59 294.473H814.877L824.683 266.541H730.784L740.59 294.473Z" fill="black"/>
<path d="M721.969 241.185H833.597L843.106 213.253H712.361L721.969 241.185Z" fill="black"/>
<path d="M611.034 134.509H761.093L751.486 106.577H611.034V134.509Z" fill="black"/>
<path d="M812.896 81.22H1000V53.288H822.406L812.896 81.22Z" fill="black"/>
</g>
<defs>
<clipPath id="clip0_612_31">
<rect width="1000" height="401.149" fill="white"/>
</clipPath>
</defs>
</svg>
