<svg data-v-74165e8a="" width="140" height="32" viewBox="0 0 140 32" fill="none" xmlns="http://www.w3.org/2000/svg" class=""><path data-v-74165e8a="" d="M55.495.618c-.524 0-1.036.158-1.47.455a2.689 2.689 0 00-.975 1.213 2.753 2.753 0 00-.15 1.56 2.72 2.72 0 00.724 1.383c.37.378.843.635 1.356.739.514.104 1.046.05 1.529-.155a2.659 2.659 0 001.187-.996 2.741 2.741 0 00-.332-3.408 2.622 2.622 0 00-1.87-.791zm80.013 7.068l-3.989 12.353h-.068l-3.989-12.353h-4.776l6.344 17.776c0 1.807-1.052 3.018-2.8 3.018-1.054 0-1.681-.091-2.219-.295l-.292 3.247c.99.3 2.016.453 3.049.458 4.505 0 5.513-3.683 6.881-7.435l6.229-16.77h-4.37zm-16.519 13.909c-1.621 0-1.994-1.35-1.994-2.814v-7.893h3.81V7.686h-3.81V2.883l-4.26 1.418v3.385H109.6v3.202h3.135v8.66c0 3.362 1.838 5.517 5.178 5.517a11.01 11.01 0 003.138-.39l-.135-3.497a3.842 3.842 0 01-1.927.416zm-16.965-10.02h-.046v-3.89h-3.816v16.93h4.26v-6.198c0-2.425 0-6.897 3.473-6.897.762 0 1.524.138 1.905.367V7.473a4.323 4.323 0 00-1.3-.138c-2.549.008-4.284 2.662-4.476 4.24zM83.735 14.55c.2-2.265 1.41-3.98 3.854-3.98 2.443 0 3.384 1.853 3.514 3.98h-7.368zm3.495-7.275c-5.176 0-7.733 4.05-7.733 8.969 0 5.58 3.206 8.805 8.698 8.805 2.33 0 4.146-.455 5.716-1.349v-3.6c-1.622.916-3.43 1.716-5.538 1.716-2.69 0-4.549-1.556-4.751-4.279h11.497c.024-5.925-1.725-10.248-7.89-10.248v-.014zM69.1 21.71c-2.87 0-3.81-3.09-3.81-5.517 0-2.378 1.096-5.399 3.877-5.399 2.782 0 3.59 3.137 3.59 5.402 0 2.356-.811 5.514-3.657 5.514zm1.322-14.322c-2.287 0-3.811.962-4.998 2.587h-.202V.138h-4.26v24.706h4.26v-2.06h.067c1.278 1.831 3.295 2.482 5.135 2.482 5.135 0 7.027-4.323 7.027-8.99-.013-4.7-1.897-8.888-7.03-8.888zM53.343 24.615H57.6V7.685h-4.257v16.93zM41.913 1.738H37.43v23.106h13.224v-3.66h-8.74V1.737z" fill="#0A3370"></path><path data-v-74165e8a="" d="M22.862 24.615V0L0 24.615h22.862z" fill="#05B3CB"></path><path data-v-74165e8a="" d="M22.862 13.862h10l-10 10.775V13.862z" fill="#0A3370"></path></svg>