<svg width="311" height="112" viewBox="0 0 311 112" fill="none" xmlns="http://www.w3.org/2000/svg">
<path d="M45.3597 3.59127V47.8113C45.3785 47.9324 45.3684 48.0563 45.3303 48.1728C45.2922 48.2894 45.2271 48.3953 45.1404 48.482C45.0537 48.5687 44.9478 48.6337 44.8313 48.6718C44.7148 48.7099 44.5909 48.72 44.4697 48.7013H38.8197C38.7037 48.7081 38.5876 48.6893 38.4797 48.6461C38.3718 48.6029 38.2747 48.5364 38.1955 48.4514C38.1162 48.3664 38.0567 48.265 38.0211 48.1543C37.9855 48.0437 37.9748 47.9265 37.9897 47.8113V22.7613C37.9897 19.2213 38.2497 13.7613 38.4997 10.2413H38.2497L28.0897 47.5613C28.0544 47.8977 27.8873 48.2065 27.625 48.4201C27.3626 48.6338 27.0264 48.7348 26.6897 48.7013H21.2497C20.9103 48.7327 20.5719 48.6315 20.3053 48.419C20.0388 48.2065 19.8648 47.8992 19.8197 47.5613L9.60974 10.2413H9.41974C9.67974 13.6513 9.98974 19.2413 9.98974 22.7613V47.8113C10.004 47.9307 9.99107 48.0518 9.95203 48.1656C9.91298 48.2793 9.84879 48.3828 9.76423 48.4683C9.67966 48.5539 9.5769 48.6192 9.46359 48.6596C9.35027 48.6999 9.22933 48.7141 9.10974 48.7013H3.47974C3.36507 48.7031 3.25129 48.6808 3.14575 48.6359C3.04022 48.591 2.94527 48.5245 2.86705 48.4406C2.78883 48.3568 2.72907 48.2574 2.69164 48.149C2.65421 48.0406 2.63994 47.9255 2.64974 47.8113V3.59127C2.63576 3.43457 2.65651 3.2767 2.71051 3.12893C2.76451 2.98116 2.85043 2.84711 2.96216 2.73634C3.07388 2.62557 3.20866 2.5408 3.35689 2.48807C3.50512 2.43534 3.66316 2.41595 3.81974 2.43127H13.0497C13.3935 2.3848 13.7419 2.47346 14.0217 2.67861C14.3014 2.88376 14.4907 3.18942 14.5497 3.53127L20.8197 26.3013C22.2097 31.6213 23.2197 35.3013 24.0497 39.9113H24.2397C25.0597 35.2913 25.9497 31.5513 27.3997 26.2413L33.6497 3.59127C33.6899 3.25718 33.8562 2.95104 34.1145 2.73543C34.3729 2.51982 34.7038 2.41102 35.0397 2.43127H44.1497C44.3084 2.41505 44.4686 2.43349 44.6194 2.48533C44.7701 2.53717 44.9078 2.62117 45.0229 2.73151C45.138 2.84185 45.2278 2.97589 45.2859 3.12434C45.3441 3.2728 45.3693 3.43212 45.3597 3.59127Z" fill="black"/>
<path d="M79.6691 24.6013V47.8113C79.6817 47.9313 79.6673 48.0525 79.627 48.1662C79.5867 48.2799 79.5216 48.3832 79.4363 48.4685C79.351 48.5538 79.2477 48.6189 79.134 48.6592C79.0203 48.6995 78.8991 48.7139 78.7791 48.7013H73.2091C73.0895 48.7142 72.9686 48.6999 72.8553 48.6596C72.7419 48.6193 72.6392 48.5539 72.5546 48.4684C72.47 48.3828 72.4059 48.2794 72.3668 48.1656C72.3278 48.0518 72.3149 47.9307 72.3291 47.8113V43.7013C71.3041 45.4402 69.8417 46.8805 68.0873 47.8788C66.3329 48.877 64.3476 49.3985 62.3291 49.3913C55.7491 49.3913 51.5791 45.0913 51.5791 38.8313C51.5791 32.5713 55.7491 28.8313 64.8191 28.2013C67.1984 28.0218 69.5871 28.0018 71.9691 28.1413V24.9113C71.9691 20.9913 69.8191 19.4113 66.2091 19.4113C62.5991 19.4113 61.2791 20.7413 60.3891 23.2013C60.1391 23.9013 59.8891 24.0313 59.1891 23.8413L53.7291 22.4313C53.1591 22.2413 52.9691 21.9213 53.1591 21.4313C54.1591 16.5013 58.6591 13.0813 66.5691 13.0813C74.7291 13.0813 79.6691 16.9413 79.6691 24.6013ZM72.0091 37.4313V33.1313C69.8387 33.0408 67.6647 33.0808 65.4991 33.2513C61.3791 33.7013 59.0391 35.0913 59.0391 38.3813C59.0391 41.2213 61.0391 43.0613 64.3591 43.0613C67.8991 43.0713 70.6191 40.9813 72.0091 37.4313Z" fill="black"/>
<path d="M94.4693 26.3013V47.8113C94.4835 47.9307 94.4706 48.0518 94.4316 48.1656C94.3925 48.2794 94.3283 48.3828 94.2438 48.4684C94.1592 48.5539 94.0564 48.6193 93.9431 48.6596C93.8298 48.6999 93.7089 48.7142 93.5893 48.7013H87.5893C86.9493 48.7013 86.5893 48.3813 86.5893 47.8113V14.6013C86.5824 14.4866 86.601 14.3718 86.6437 14.265C86.6863 14.1583 86.7521 14.0624 86.8361 13.984C86.9202 13.9057 87.0206 13.8469 87.13 13.8118C87.2395 13.7768 87.3553 13.7664 87.4693 13.7813H93.3593C93.4732 13.7664 93.5891 13.7768 93.6985 13.8118C93.808 13.8469 93.9083 13.9057 93.9924 13.984C94.0765 14.0624 94.1422 14.1583 94.1849 14.265C94.2276 14.3718 94.2462 14.4866 94.2393 14.6013V18.8413C95.3875 17.0798 96.9555 15.6313 98.8023 14.6259C100.649 13.6205 102.717 13.0897 104.819 13.0813C111.469 13.0813 115.069 17.8913 115.069 24.9813V47.8113C115.069 48.4513 114.759 48.7013 114.189 48.7013H108.189C107.559 48.7013 107.239 48.3813 107.239 47.8113V26.3013C107.239 22.5113 105.469 20.2313 101.919 20.2313C98.5193 20.2313 95.7393 22.7013 94.4693 26.3013Z" fill="black"/>
<path d="M132.63 6.06133V14.0613H139.63C140.13 14.0613 140.45 14.3813 140.45 15.0613V19.6213C140.45 20.2513 140.13 20.5013 139.63 20.5013H132.63V38.0113C132.63 40.5413 134.02 41.8013 136.87 41.8013H139.52C139.641 41.7826 139.765 41.7927 139.881 41.8308C139.998 41.8689 140.104 41.9339 140.19 42.0206C140.277 42.1073 140.342 42.2132 140.38 42.3298C140.418 42.4463 140.428 42.5702 140.41 42.6913V47.8113C140.428 47.9325 140.418 48.0564 140.38 48.1729C140.342 48.2894 140.277 48.3953 140.19 48.482C140.104 48.5687 139.998 48.6338 139.881 48.6719C139.765 48.71 139.641 48.7201 139.52 48.7013H135.6C128.52 48.7013 124.97 44.9013 124.97 39.0813V20.4313H120.61C120.489 20.4519 120.365 20.4435 120.248 20.4067C120.132 20.3699 120.026 20.3059 119.939 20.2199C119.852 20.1338 119.786 20.0283 119.748 19.9121C119.71 19.7958 119.7 19.6722 119.72 19.5513V14.9813C119.72 14.3513 120.04 13.9813 120.61 13.9813H125.04V5.98133C125.031 5.86306 125.047 5.74427 125.088 5.63297C125.129 5.52167 125.194 5.42045 125.277 5.33611C125.36 5.25178 125.461 5.18629 125.572 5.14407C125.683 5.10184 125.801 5.08386 125.92 5.09133H131.74C131.868 5.07354 131.998 5.08713 132.12 5.13095C132.242 5.17476 132.351 5.24749 132.439 5.34289C132.526 5.43828 132.59 5.55349 132.623 5.67863C132.656 5.80377 132.658 5.9351 132.63 6.06133Z" fill="black"/>
<path d="M152.209 33.6412V35.6412C152.209 40.1312 154.549 42.9112 159.549 42.9812C164.229 42.9812 165.679 41.1412 166.879 38.8012C167.389 37.9812 167.709 37.8512 168.529 38.2312L172.529 40.2312C173.419 40.6712 173.479 41.1712 173.099 41.9312C171.019 46.5512 166.099 49.3312 159.499 49.3312C149.819 49.3312 144.699 43.5812 144.699 35.4812V26.8812C144.699 18.9712 149.629 13.0212 159.379 13.0212C168.739 13.0212 173.479 19.0212 173.479 26.7512V32.0612C173.479 33.0612 173.099 33.5812 171.899 33.5812L152.209 33.6412ZM152.209 26.6412V28.4312H166.209V26.6212C166.209 22.3212 163.809 19.4712 159.209 19.4712C154.609 19.4712 152.209 22.3212 152.209 26.6212V26.6412Z" fill="black"/>
<path d="M187.339 1.32129V47.8113C187.352 47.9313 187.337 48.0525 187.297 48.1662C187.257 48.2799 187.192 48.3832 187.106 48.4685C187.021 48.5537 186.918 48.6189 186.804 48.6592C186.69 48.6995 186.569 48.7139 186.449 48.7013H180.449C179.819 48.7013 179.449 48.3813 179.449 47.8113V1.32129C179.449 0.75129 179.769 0.43129 180.449 0.43129H186.449C186.569 0.41872 186.69 0.433102 186.804 0.473384C186.918 0.513666 187.021 0.578832 187.106 0.664123C187.192 0.749415 187.257 0.852679 187.297 0.966374C187.337 1.08007 187.352 1.20133 187.339 1.32129Z" fill="black"/>
<path d="M28.2793 66.4812H21.2793C23.6893 68.0612 25.7093 71.2212 25.7093 76.0312C25.7093 83.1212 21.3493 87.4812 13.8793 87.4812H9.87929C7.02929 87.4812 5.75929 88.9412 5.75929 90.4812C5.75929 92.0212 7.02929 93.4812 9.87929 93.4812H17.8793C25.9793 93.4812 28.8793 97.6612 28.8793 102.211C28.8793 107.531 24.8293 111.891 14.6993 111.891C4.81929 111.901 0.819286 107.791 0.819286 102.481C0.752431 100.836 1.1808 99.208 2.049 97.8085C2.9172 96.409 4.18529 95.3022 5.68929 94.6312C5.00914 94.1564 4.44899 93.5295 4.05323 92.8005C3.65747 92.0715 3.437 91.2603 3.40929 90.4312C3.46429 89.3819 3.84847 88.3766 4.50727 87.5581C5.16607 86.7395 6.066 86.1493 7.07929 85.8712C3.72929 84.0012 1.89929 80.4312 1.89929 75.7812C1.89929 68.5012 6.31929 64.1412 13.8193 64.1412H28.2793C28.6593 64.1412 28.8493 64.2712 28.8493 64.8312V65.7812C28.8193 66.3512 28.6593 66.4812 28.2793 66.4812ZM11.3793 95.8312C4.99929 95.8312 3.21929 98.9312 3.21929 102.221C3.21929 106.781 6.69929 109.561 14.6093 109.561C22.7693 109.561 26.4393 106.561 26.4393 102.031C26.4393 98.8712 24.6693 95.8312 17.8393 95.8312H11.3793ZM13.8193 66.4812C7.81929 66.4812 4.32929 69.7112 4.32929 75.7212C4.32929 81.7312 7.74929 85.1412 14.0093 85.1412C19.6393 85.1412 23.3093 82.3612 23.3093 76.0312C23.2793 70.2112 20.1793 66.4812 13.8193 66.4812Z" fill="black"/>
<path d="M49.9897 64.2713V65.5913C49.9897 65.9713 49.8597 66.1613 49.3597 66.1613H48.8197C43.6997 66.1613 40.2197 69.5813 38.3197 73.8213V98.1113C38.3197 98.6213 37.9997 98.6213 37.6197 98.6213H36.6197C36.2397 98.6213 35.9297 98.6213 35.9297 98.1113V64.6413C35.9297 64.1413 36.2397 64.1413 36.5597 64.1413H37.7197C38.0297 64.1413 38.3497 64.1413 38.3497 64.6413L38.2897 70.4313C39.3393 68.3908 40.9366 66.683 42.9025 65.4996C44.8685 64.3161 47.1252 63.7038 49.4197 63.7313C49.8197 63.7013 49.9897 63.8213 49.9897 64.2713Z" fill="black"/>
<path d="M80.1693 76.2212V86.5312C80.1693 94.3112 75.5493 99.2512 67.3293 99.2512C59.1093 99.2512 54.4893 94.3112 54.4893 86.5312V76.2212C54.4893 68.4412 59.0993 63.5112 67.3293 63.5112C75.5593 63.5112 80.1693 68.4312 80.1693 76.2212ZM56.8893 76.3512V86.4312C56.8893 93.5112 60.8893 96.9312 67.3293 96.9312C73.7693 96.9312 77.8193 93.4912 77.8193 86.4312V76.3512C77.8193 69.2612 73.8193 65.8512 67.3793 65.8512C60.9393 65.8512 56.8893 69.2612 56.8893 76.3512Z" fill="black"/>
<path d="M88.4697 88.5612V64.7112C88.4697 64.3312 88.5997 64.1412 89.1697 64.1412H90.1697C90.7397 64.1412 90.8697 64.3312 90.8697 64.7112V88.1112C90.8697 93.7512 93.3297 96.9112 98.8697 96.9112C103.36 96.9112 107.66 93.8112 109.75 89.1912V64.7112C109.75 64.3312 109.88 64.1412 110.45 64.1412H111.45C112.02 64.1412 112.14 64.3312 112.14 64.7112V98.0512C112.14 98.4312 112.02 98.6212 111.45 98.6212H110.45C109.88 98.6212 109.75 98.4312 109.75 98.0512V92.9912C108.561 94.8933 106.911 96.4643 104.953 97.5587C102.995 98.653 100.793 99.2352 98.5497 99.2512C91.8897 99.2512 88.4697 94.7612 88.4697 88.5612Z" fill="black"/>
<path d="M121.919 111.271C121.851 111.277 121.782 111.268 121.717 111.245C121.652 111.221 121.594 111.184 121.545 111.135C121.496 111.087 121.459 111.028 121.435 110.963C121.412 110.899 121.403 110.83 121.409 110.761V64.6412C121.409 64.1412 121.659 64.1412 122.039 64.1412H123.179C123.439 64.1412 123.819 64.1412 123.819 64.6412V69.2612C125.459 66.2612 129.069 63.5112 134.439 63.5112C141.969 63.5712 146.589 68.4412 146.589 76.2212V86.5312C146.589 94.3112 141.969 99.1912 134.439 99.2512C129.069 99.2512 125.439 96.5312 123.819 93.4312V110.761C123.819 111.141 123.629 111.271 123.249 111.271H121.919ZM144.189 86.4312V76.3512C144.189 69.2612 140.189 65.9112 134.319 65.8512C128.999 65.8512 123.819 69.4312 123.819 76.4312V86.3612C123.819 93.3612 128.999 96.9312 134.319 96.9312C140.199 96.8512 144.189 93.4912 144.189 86.4312Z" fill="black"/>
<path d="M211.129 42.4313C210.067 42.4292 209.023 42.705 208.1 43.2312C207.177 43.7575 206.408 44.516 205.869 45.4313L178.229 91.1713C177.237 92.8156 176.7 94.694 176.672 96.6142C176.644 98.5344 177.127 100.428 178.071 102.1C179.015 103.772 180.386 105.164 182.045 106.132C183.703 107.101 185.589 107.611 187.509 107.611C196.299 107.611 198.319 104.421 223.039 65.3113L225.839 60.8713C220.319 52.0113 216.429 45.4113 216.389 45.3413C215.839 44.4434 215.065 43.7034 214.143 43.1934C213.221 42.6834 212.183 42.4209 211.129 42.4313Z" fill="black"/>
<path d="M197.729 107.611H295.259C298.025 107.613 300.742 106.879 303.131 105.485C305.52 104.092 307.495 102.088 308.854 99.6792C310.214 97.2706 310.909 94.5439 310.867 91.7785C310.826 89.013 310.05 86.3082 308.619 83.9413L270.449 20.6713C269.637 19.3256 268.49 18.2127 267.121 17.4402C265.752 16.6676 264.207 16.2617 262.634 16.2617C261.062 16.2617 259.517 16.6676 258.148 17.4402C256.779 18.2127 255.632 19.3256 254.819 20.6713L229.219 61.7513L225.819 67.0913C210.009 92.1613 203.159 102.991 197.729 107.611Z" fill="black"/>
</svg>
