<svg width="109" height="43" viewBox="0 0 109 43" fill="none" xmlns="http://www.w3.org/2000/svg">
<path d="M56.1029 28.9779C53.7004 28.9779 51.53 28.7128 49.5967 26.7782L52.0882 24.2874C53.3501 25.5468 54.991 25.7222 56.162 25.7222C57.4818 25.7222 58.8575 25.2836 58.8575 24.1405C58.8575 23.3776 58.4488 22.8506 57.2466 22.7323L54.8428 22.4984C52.0875 22.2358 50.3888 21.0343 50.3888 18.2185C50.3888 15.0545 53.1714 13.3545 56.279 13.3545C58.6528 13.3545 60.6459 13.7652 62.1119 15.1415L59.768 17.5154C58.8881 16.7246 57.539 16.4913 56.2205 16.4913C54.6973 16.4913 54.0526 17.1944 54.0526 17.956C54.0526 18.5129 54.2872 19.1582 55.6356 19.2752L58.04 19.5098C61.0572 19.8022 62.5837 21.4151 62.5837 23.9937C62.5824 27.3644 59.7088 28.9779 56.1029 28.9779Z" fill="white"/>
<path d="M67.7401 22.3518C67.7401 24.3156 68.9423 25.7518 71.0823 25.7518C72.751 25.7518 73.5724 25.2826 74.5394 24.3156L76.8554 26.5719C75.3017 28.1263 73.807 28.9769 71.0511 28.9769C67.4464 28.9769 63.9893 27.3355 63.9893 21.1496C63.9893 16.1667 66.6848 13.3535 70.641 13.3535C74.8903 13.3535 77.2941 16.4617 77.2941 20.6525V22.3512L67.7401 22.3518ZM73.1923 18.1006C72.7796 17.1934 71.9296 16.5189 70.641 16.5189C69.3504 16.5189 68.5011 17.1934 68.091 18.1006C67.8564 18.6588 67.77 19.0695 67.7395 19.744H73.5438C73.5139 19.0695 73.4262 18.6595 73.1923 18.1006Z" fill="white"/>
<path d="M82.7756 22.3518C82.7756 24.3156 83.9791 25.7518 86.1164 25.7518C87.7878 25.7518 88.6092 25.2826 89.5762 24.3156L91.8909 26.5719C90.3371 28.1263 88.8425 28.9769 86.0878 28.9769C82.4819 28.9769 79.0234 27.3355 79.0234 21.1496C79.0234 16.1667 81.7203 13.3535 85.6778 13.3535C89.9271 13.3535 92.3308 16.4617 92.3308 20.6525V22.3512L82.7756 22.3518ZM88.2278 18.1006C87.8164 17.1934 86.9664 16.5189 85.6778 16.5189C84.3872 16.5189 83.5366 17.1934 83.1265 18.1006C82.8919 18.6588 82.8042 19.0695 82.775 19.744H88.5793C88.5501 19.0695 88.4617 18.6595 88.2278 18.1006Z" fill="white"/>
<path d="M103.994 28.8025L100.245 22.4393L98.629 24.2601V28.8025H94.8203V7.93164H98.629V19.7743L103.701 13.5307H108.304L102.852 19.6866L108.713 28.8032L103.994 28.8025Z" fill="white"/>
<path d="M21.9049 0.326172C10.239 0.326172 0.78125 9.78269 0.78125 21.4505C0.78125 33.1164 10.239 42.5736 21.9049 42.5736C33.5747 42.5736 43.0299 33.1164 43.0299 21.4505C43.0299 9.78269 33.5741 0.326172 21.9049 0.326172ZM5.1696 26.4646C4.98687 26.4646 4.83752 26.3178 4.83752 26.1372C4.83752 25.9547 4.98638 25.805 5.1696 25.805C5.35013 25.805 5.49712 25.9539 5.49712 26.1372C5.49712 26.3184 5.35099 26.4646 5.1696 26.4646ZM5.1696 22.0289C4.98687 22.0289 4.83752 21.88 4.83752 21.6974C4.83752 21.5149 4.98638 21.3667 5.1696 21.3667C5.35013 21.3667 5.49712 21.5148 5.49712 21.6974C5.49712 21.8802 5.35099 22.0289 5.1696 22.0289ZM5.1696 17.5905C4.98687 17.5905 4.83752 17.4417 4.83752 17.2597C4.83752 17.0772 4.98638 16.9302 5.1696 16.9302C5.35013 16.9302 5.49712 17.0771 5.49712 17.2597C5.49712 17.4422 5.35099 17.5905 5.1696 17.5905ZM7.44535 26.6323C7.1711 26.6323 6.95017 26.4101 6.95017 26.1372C6.95017 25.8629 7.17098 25.64 7.44535 25.64C7.71893 25.64 7.9405 25.863 7.9405 26.1372C7.9405 26.4101 7.71947 26.6323 7.44535 26.6323ZM7.44535 22.192C7.1711 22.192 6.95017 21.9717 6.95017 21.6974C6.95017 21.4245 7.17098 21.2029 7.44535 21.2029C7.71893 21.2029 7.9405 21.4244 7.9405 21.6974C7.9405 21.9717 7.71947 22.192 7.44535 22.192ZM7.44535 17.7549C7.1711 17.7549 6.95017 17.5334 6.95017 17.2597C6.95017 16.9855 7.17098 16.7639 7.44535 16.7639C7.71893 16.7639 7.9405 16.9855 7.9405 17.2597C7.9405 17.5333 7.71947 17.7549 7.44535 17.7549ZM10.1116 26.798C9.74641 26.798 9.44943 26.5024 9.44943 26.1372C9.44943 25.7726 9.74641 25.4756 10.1116 25.4756C10.4742 25.4756 10.7718 25.7726 10.7718 26.1372C10.7712 26.5024 10.4736 26.798 10.1116 26.798ZM10.1116 22.357C9.74641 22.357 9.44943 22.0627 9.44943 21.6974C9.44943 21.3322 9.74641 21.0372 10.1116 21.0372C10.4742 21.0372 10.7718 21.3316 10.7718 21.6974C10.7712 22.0627 10.4736 22.357 10.1116 22.357ZM10.1116 17.9193C9.74641 17.9193 9.44943 17.6262 9.44943 17.2597C9.44943 16.8945 9.74641 16.5995 10.1116 16.5995C10.4742 16.5995 10.7718 16.8939 10.7718 17.2597C10.7712 17.6262 10.4736 17.9193 10.1116 17.9193ZM12.9144 26.9611C12.4582 26.9611 12.0891 26.5927 12.0891 26.1372C12.0891 25.679 12.4582 25.3119 12.9144 25.3119C13.3719 25.3119 13.7397 25.6784 13.7397 26.1372C13.7397 26.5927 13.3719 26.9611 12.9144 26.9611ZM12.9144 22.524C12.4582 22.524 12.0891 22.1549 12.0891 21.6981C12.0891 21.2413 12.4582 20.8735 12.9144 20.8735C13.3719 20.8735 13.7397 21.2406 13.7397 21.6981C13.7397 22.1556 13.3719 22.524 12.9144 22.524ZM12.9144 18.0863C12.4582 18.0863 12.0891 17.7172 12.0891 17.2603C12.0891 16.8035 12.4582 16.4344 12.9144 16.4344C13.3719 16.4344 13.7397 16.8028 13.7397 17.2603C13.7397 17.7178 13.3719 18.0863 12.9144 18.0863ZM16.1987 27.1269C15.6515 27.1269 15.209 26.6843 15.209 26.1378C15.209 25.5887 15.6521 25.1481 16.1987 25.1481C16.7445 25.1481 17.1877 25.5893 17.1877 26.1378C17.1877 26.6843 16.7445 27.1269 16.1987 27.1269ZM16.1987 22.6885C15.6515 22.6885 15.209 22.244 15.209 21.6981C15.209 21.1509 15.6521 20.7084 16.1987 20.7084C16.7445 20.7084 17.1877 21.1516 17.1877 21.6981C17.1877 22.244 16.7445 22.6885 16.1987 22.6885ZM16.1987 18.2507C15.6515 18.2507 15.209 17.8068 15.209 17.2603C15.209 16.7138 15.6521 16.2694 16.1987 16.2694C16.7445 16.2694 17.1877 16.7138 17.1877 17.2603C17.1877 17.8068 16.7445 18.2507 16.1987 18.2507ZM19.6357 27.2913C18.9969 27.2913 18.4803 26.7766 18.4803 26.1378C18.4803 25.4996 18.9969 24.9811 19.6357 24.9811C20.2758 24.9811 20.7917 25.4996 20.7917 26.1378C20.7917 26.7766 20.2758 27.2913 19.6357 27.2913ZM19.6357 22.8535C18.9969 22.8535 18.4803 22.3363 18.4803 21.6981C18.4803 21.06 18.9969 20.544 19.6357 20.544C20.2758 20.544 20.7917 21.06 20.7917 21.6981C20.7917 22.3363 20.2758 22.8535 19.6357 22.8535ZM19.6357 18.4151C18.9969 18.4151 18.4803 17.8978 18.4803 17.2603C18.4803 16.6228 18.9969 16.1063 19.6357 16.1063C20.2758 16.1063 20.7917 16.6228 20.7917 17.2603C20.7917 17.8978 20.2758 18.4151 19.6357 18.4151ZM23.7225 36.3351C22.994 36.3351 22.4053 35.743 22.4053 35.0133C22.4053 34.2861 22.994 33.6961 23.7225 33.6961C24.4536 33.6961 25.0449 34.2861 25.0449 35.0133C25.0449 35.743 24.4542 36.3351 23.7225 36.3351ZM23.7225 31.896C22.994 31.896 22.4053 31.3046 22.4053 30.5768C22.4053 29.8477 22.994 29.2537 23.7225 29.2537C24.4536 29.2537 25.0449 29.8477 25.0449 30.5768C25.0449 31.3046 24.4542 31.896 23.7225 31.896ZM23.7225 27.457C22.994 27.457 22.4053 26.8662 22.4053 26.1378C22.4053 25.408 22.994 24.8166 23.7225 24.8166C24.4536 24.8166 25.0449 25.408 25.0449 26.1378C25.0449 26.8662 24.4542 27.457 23.7225 27.457ZM23.7225 23.0186C22.994 23.0186 22.4053 22.4272 22.4053 21.6981C22.4053 20.9677 22.994 20.3789 23.7225 20.3789C24.4536 20.3789 25.0449 20.9677 25.0449 21.6981C25.0449 22.4272 24.4542 23.0186 23.7225 23.0186ZM23.7225 18.5802C22.994 18.5802 22.4053 17.9901 22.4053 17.2603C22.4053 16.5312 22.994 15.9405 23.7225 15.9405C24.4536 15.9405 25.0449 16.5312 25.0449 17.2603C25.0449 17.9894 24.4542 18.5802 23.7225 18.5802ZM23.7225 14.1418C22.994 14.1418 22.4053 13.5491 22.4053 12.8213C22.4053 12.0916 22.994 11.5021 23.7225 11.5021C24.4536 11.5021 25.0449 12.0916 25.0449 12.8213C25.0449 13.5485 24.4542 14.1418 23.7225 14.1418ZM23.7225 9.70206C22.994 9.70206 22.4053 9.11072 22.4053 8.38355C22.4053 7.65377 22.994 7.06242 23.7225 7.06242C24.4536 7.06242 25.0449 7.65377 25.0449 8.38355C25.0449 9.11006 24.4542 9.70206 23.7225 9.70206ZM27.9659 32.0318C27.1647 32.0318 26.5116 31.3807 26.5116 30.5768C26.5116 29.7717 27.164 29.1199 27.9659 29.1199C28.7717 29.1199 29.4235 29.7717 29.4235 30.5768C29.4235 31.3807 28.7717 32.0318 27.9659 32.0318ZM27.9659 27.5928C27.1647 27.5928 26.5116 26.941 26.5116 26.1378C26.5116 25.3326 27.164 24.6808 27.9659 24.6808C28.7717 24.6808 29.4235 25.3326 29.4235 26.1378C29.4235 26.941 28.7717 27.5928 27.9659 27.5928ZM27.9659 23.1551C27.1647 23.1551 26.5116 22.5026 26.5116 21.6981C26.5116 20.8943 27.164 20.2438 27.9659 20.2438C28.7717 20.2438 29.4235 20.8943 29.4235 21.6981C29.4235 22.5026 28.7717 23.1551 27.9659 23.1551ZM27.9659 18.7147C27.1647 18.7147 26.5116 18.0635 26.5116 17.2603C26.5116 16.4558 27.164 15.8047 27.9659 15.8047C28.7717 15.8047 29.4235 16.4558 29.4235 17.2603C29.4235 18.0635 28.7717 18.7147 27.9659 18.7147ZM27.9659 14.2763C27.1647 14.2763 26.5116 13.6245 26.5116 12.8213C26.5116 12.0162 27.164 11.3644 27.9659 11.3644C28.7717 11.3644 29.4235 12.0162 29.4235 12.8213C29.4235 13.6245 28.7717 14.2763 27.9659 14.2763ZM32.5207 27.7852C31.6154 27.7852 30.885 27.0534 30.885 26.1495C30.885 25.2469 31.6154 24.5145 32.5207 24.5145C33.4246 24.5145 34.1537 25.2469 34.1537 26.1495C34.1531 27.0534 33.4246 27.7852 32.5207 27.7852ZM32.5207 23.3454C31.6154 23.3454 30.885 22.6157 30.885 21.7111C30.885 20.8104 31.6154 20.0754 32.5207 20.0754C33.4246 20.0754 34.1537 20.8104 34.1537 21.7111C34.1531 22.6157 33.4246 23.3454 32.5207 23.3454ZM32.5207 18.9077C31.6154 18.9077 30.885 18.1766 30.885 17.2734C30.885 16.3681 31.6154 15.6377 32.5207 15.6377C33.4246 15.6377 34.1537 16.3681 34.1537 17.2734C34.1531 18.1766 33.4246 18.9077 32.5207 18.9077ZM37.1599 23.5313C36.1727 23.5313 35.3689 22.7294 35.3689 21.7417C35.3689 20.752 36.1734 19.95 37.1599 19.95C38.1483 19.95 38.9495 20.7513 38.9495 21.7417C38.9495 22.7288 38.1489 23.5313 37.1599 23.5313Z" fill="white"/>
</svg>
