<svg width="43" height="43" viewBox="0 0 43 43" fill="none" xmlns="http://www.w3.org/2000/svg">
<path fill-rule="evenodd" clip-rule="evenodd" d="M21.5113 42.573C33.1767 42.573 42.6333 33.1162 42.6333 21.4491C42.6333 9.78252 33.1767 0.325684 21.5113 0.325684C9.84523 0.325684 0.388672 9.78252 0.388672 21.4491C0.388672 33.1162 9.84523 42.573 21.5113 42.573ZM18.6224 6.44477C18.6224 5.86517 19.0926 5.39668 19.671 5.39668C20.2487 5.39668 20.7184 5.86517 20.7184 6.44477V15.4139C20.7184 15.9935 20.2487 16.462 19.671 16.462C19.0926 16.462 18.6224 15.9935 18.6224 15.4139V6.44477ZM25.6418 6.44477C25.6418 5.86517 26.1121 5.39668 26.6898 5.39668C27.2688 5.39668 27.7372 5.86517 27.7372 6.44477V19.4381C27.7372 20.0165 27.2688 20.4868 26.6898 20.4868C26.1121 20.4868 25.6418 20.0165 25.6418 19.4381V6.44477ZM11.6035 11.475C11.6035 10.896 12.0726 10.4269 12.6515 10.4269C13.2299 10.4269 13.6983 10.896 13.6983 11.475V17.4272C13.6983 18.0044 13.2299 18.4747 12.6515 18.4747C12.0726 18.4747 11.6035 18.0044 11.6035 17.4272V11.475ZM29.1516 11.475C29.1516 10.896 29.6218 10.4269 30.1996 10.4269C30.7779 10.4269 31.2464 10.896 31.2464 11.475V17.4272C31.2464 18.0044 30.7779 18.4747 30.1996 18.4747C29.6218 18.4747 29.1516 18.0044 29.1516 17.4272V11.475ZM15.1127 8.4562C15.1127 7.8772 15.5823 7.40811 16.1613 7.40811C16.7396 7.40811 17.2093 7.8772 17.2093 8.4562V16.4199C17.2093 16.9989 16.7396 17.4686 16.1613 17.4686C15.5823 17.4686 15.1127 16.9989 15.1127 16.4199V8.4562ZM22.1327 9.46237C22.1327 8.88397 22.6018 8.41428 23.1813 8.41428C23.7591 8.41428 24.2281 8.88397 24.2281 9.46237V18.4327C24.2281 19.0099 23.7591 19.4802 23.1813 19.4802C22.6018 19.4802 22.1327 19.0099 22.1327 18.4327V9.46237ZM26.6903 23.7542C27.3154 23.7542 27.8223 23.2485 27.8223 22.6233C27.8223 21.9992 27.3154 21.4929 26.6903 21.4929C26.0657 21.4929 25.5588 21.9992 25.5588 22.6233C25.5588 23.2485 26.0657 23.7542 26.6903 23.7542ZM33.2359 27.176C34.3937 27.176 35.2153 28.1106 35.2153 29.2313V29.2494C35.2153 30.3701 34.4124 31.2855 33.2551 31.2855C32.096 31.2855 31.2756 30.3503 31.2756 29.2313V29.2121C31.2756 28.0914 32.078 27.176 33.2359 27.176ZM29.7724 29.2494C29.7724 31.1083 31.2197 32.6099 33.2359 32.6099C35.252 32.6099 36.7174 31.0885 36.7174 29.2313V29.2121C36.7174 27.3544 35.2718 25.8504 33.2551 25.8504C31.239 25.8504 29.7724 27.3724 29.7724 29.2313V29.2494ZM26.1769 27.2607C26.8772 27.2607 27.3048 27.5785 27.3048 28.1947V28.2133C27.3048 28.7647 26.9054 29.1377 26.2046 29.1377H24.7488V27.2607H26.1769ZM25.8779 30.4086L27.2778 32.4982H28.9588L27.3619 30.1648C28.1937 29.8567 28.7618 29.193 28.7618 28.1389V28.119C28.7618 26.7754 27.8369 25.9628 26.2977 25.9628H23.311V32.4982H24.7488V30.4086H25.8779ZM20.0343 25.9627V32.4981H21.4715V25.9627H20.0343ZM13.2733 31.546C14.0577 32.2463 15.0558 32.5917 16.0449 32.5917C17.4545 32.5917 18.4436 31.8655 18.4436 30.5658V30.5477C18.4436 29.4077 17.6977 28.932 16.3722 28.5849C15.242 28.296 14.9621 28.1572 14.9621 27.729V27.7086C14.9621 27.3908 15.2516 27.1386 15.8023 27.1386C16.3542 27.1386 16.9236 27.3818 17.5013 27.7837L18.2484 26.7007C17.5872 26.1668 16.7734 25.8695 15.8209 25.8695C14.4859 25.8695 13.5334 26.6545 13.5334 27.8395V27.8581C13.5334 29.1549 14.3856 29.5201 15.699 29.8564C16.792 30.1363 17.0167 30.3219 17.0167 30.6877V30.7063C17.0167 31.0883 16.6623 31.3225 16.0744 31.3225C15.3267 31.3225 14.7099 31.0138 14.1213 30.5279L13.2733 31.546ZM6.30371 29.2497C6.30371 31.1254 7.73246 32.6102 9.65488 32.6102C10.9155 32.6102 11.6626 32.1621 12.3346 31.4443L11.42 30.5188C10.9065 30.9861 10.45 31.2852 9.70173 31.2852C8.58227 31.2852 7.80633 30.35 7.80633 29.2316V29.2124C7.80633 28.0917 8.60089 27.1763 9.70173 27.1763C10.3557 27.1763 10.868 27.4574 11.3731 27.9133L12.2884 26.8598C11.6806 26.2634 10.9449 25.8501 9.71074 25.8501C7.70364 25.8501 6.30371 27.3721 6.30371 29.2316V29.2497Z" fill="black"/>
</svg>
