<svg width="886" height="166" viewBox="0 0 886 166" fill="none" xmlns="http://www.w3.org/2000/svg">
<path d="M838.967 142.339C838.967 129.377 849.489 118.86 862.444 118.86C875.406 118.86 885.916 129.377 885.916 142.339C885.916 155.301 875.406 165.81 862.444 165.81C849.489 165.81 838.967 155.301 838.967 142.339Z" fill="black"/>
<path d="M90.199 80.1609C90.199 65.2899 87.326 54.2573 81.5788 47.0697C75.8244 39.889 67.1078 36.302 55.3893 36.302H42.9234V127.24H52.4609C65.4772 127.24 75.0158 123.381 81.0892 115.637C87.155 107.906 90.199 96.078 90.199 80.1609ZM134.656 78.6121C134.656 105.705 127.373 126.581 112.808 141.234C98.242 155.895 77.7672 163.225 51.3742 163.225H0.0898132V0.88089H54.954C80.4025 0.88089 100.049 7.54519 113.894 20.8673C127.733 34.1962 134.656 53.4354 134.656 78.6121Z" fill="black"/>
<path d="M276.713 163.223H317.522V0.199707H276.713V163.223Z" fill="black"/>
<path d="M374.85 102.415C374.85 112.809 376.208 120.737 378.919 126.185C381.636 131.64 386.188 134.365 392.587 134.365C398.919 134.365 403.395 131.64 406.004 126.185C408.613 120.737 409.91 112.809 409.91 102.415C409.91 92.075 408.592 84.276 405.95 79.0111C403.3 73.7326 398.783 71.0898 392.377 71.0898C386.114 71.0898 381.636 73.7191 378.919 78.9501C376.208 84.188 374.85 92.007 374.85 102.415ZM451.446 102.415C451.446 122.218 446.255 137.666 435.848 148.74C425.447 159.82 410.889 165.363 392.173 165.363C374.225 165.363 359.937 159.697 349.333 148.366C338.715 137.034 333.409 121.722 333.409 102.415C333.409 82.673 338.607 67.3331 349.014 56.3955C359.421 45.458 374.014 39.9893 392.805 39.9893C404.415 39.9893 414.687 42.5234 423.586 47.5845C432.492 52.6457 439.368 59.8944 444.198 69.3373C449.035 78.7667 451.446 89.799 451.446 102.415Z" fill="black"/>
<path d="M467.652 163.224H508.468V100.832V42.1294H467.652V163.224Z" fill="black"/>
<path d="M467.651 27.4818H508.467V0.192413H467.651V27.4818Z" fill="black"/>
<path d="M591.157 132.337C596.667 132.337 603.229 130.938 610.885 128.159V158.628C605.382 161.046 600.151 162.779 595.179 163.805C590.206 164.844 584.37 165.36 577.692 165.36C563.989 165.36 554.111 161.916 548.045 155.041C542.005 148.166 538.976 137.609 538.976 123.363V73.4443H524.683V42.1398H538.976V11.2158L580.104 4.06201V42.1398H606.144V73.4443H580.104V120.578C580.104 128.417 583.793 132.337 591.157 132.337Z" fill="black"/>
<path d="M685.62 132.337C691.129 132.337 697.693 130.938 705.349 128.159V158.628C699.853 161.046 694.614 162.779 689.641 163.805C684.662 164.844 678.846 165.36 672.155 165.36C658.452 165.36 648.575 161.916 642.522 155.041C636.469 148.166 633.44 137.609 633.44 123.363V73.4443H619.139V42.1398H633.44V10.747L674.56 4.06201V42.1398H700.613V73.4443H674.56V120.578C674.56 128.417 678.249 132.337 685.62 132.337Z" fill="black"/>
<path d="M756.847 87.662C757.404 81.0317 759.3 76.1744 762.533 73.0697C765.781 69.9719 769.789 68.4231 774.585 68.4231C779.816 68.4231 783.974 70.162 787.058 73.6675C790.162 77.1526 791.779 81.8198 791.909 87.662H756.847ZM814.402 54.2655C804.701 44.7546 790.937 39.9922 773.131 39.9922C754.415 39.9922 740.013 45.4609 729.918 56.3984C719.829 67.336 714.781 83.029 714.781 103.478C714.781 123.281 720.237 138.552 731.12 149.272C742.01 159.993 757.302 165.36 776.996 165.36C786.453 165.36 794.592 164.714 801.413 163.43C808.193 162.16 814.755 159.863 821.121 156.548L814.85 129.259C810.224 131.147 805.821 132.601 801.664 133.559C795.658 134.952 789.069 135.652 781.895 135.652C774.029 135.652 767.819 133.729 763.267 129.884C758.716 126.032 756.29 120.72 756.012 113.953H828.96V95.359C828.96 77.472 824.109 63.7696 814.402 54.2655Z" fill="black"/>
<path d="M188.818 87.662C189.375 81.0317 191.271 76.1744 194.504 73.0697C197.745 69.9719 201.76 68.4231 206.564 68.4231C211.781 68.4231 215.938 70.162 219.029 73.6675C222.134 77.1526 223.744 81.8198 223.887 87.662H188.818ZM246.38 54.2655C236.672 44.7546 222.915 39.9922 205.103 39.9922C186.379 39.9922 171.984 45.4609 161.895 56.3984C151.807 67.336 146.753 83.029 146.753 103.478C146.753 123.281 152.202 138.552 163.098 149.272C173.982 159.993 189.273 165.36 208.968 165.36C218.424 165.36 226.563 164.714 233.383 163.43C240.163 162.16 246.727 159.863 253.099 156.548L246.822 129.259C242.195 131.147 237.793 132.601 233.642 133.559C227.623 134.952 221.04 135.652 213.865 135.652C206.006 135.652 199.791 133.729 195.239 129.884C190.68 126.032 188.262 120.72 187.984 113.953H260.932V95.359C260.932 77.472 256.081 63.7696 246.38 54.2655Z" fill="black"/>
</svg>
