<svg width="920" height="200" viewBox="0 0 920 200" fill="none" xmlns="http://www.w3.org/2000/svg">
<path d="M855.967 159.339C855.967 146.377 866.489 135.86 879.444 135.86C892.406 135.86 902.916 146.377 902.916 159.339C902.916 172.301 892.406 182.81 879.444 182.81C866.489 182.81 855.967 172.301 855.967 159.339Z" fill="black"/>
<path d="M107.199 97.1609C107.199 82.2899 104.326 71.2573 98.5788 64.0697C92.8244 56.889 84.1078 53.302 72.3893 53.302H59.9234V144.24H69.4609C82.4772 144.24 92.0158 140.381 98.0892 132.637C104.155 124.906 107.199 113.078 107.199 97.1609ZM151.656 95.6121C151.656 122.705 144.373 143.581 129.808 158.234C115.242 172.895 94.7672 180.225 68.3742 180.225H17.0898V17.8809H71.954C97.4025 17.8809 117.049 24.5452 130.894 37.8673C144.733 51.1962 151.656 70.4354 151.656 95.6121Z" fill="black"/>
<path d="M293.713 180.223H334.522V17.1997H293.713V180.223Z" fill="black"/>
<path d="M391.85 119.415C391.85 129.809 393.208 137.737 395.919 143.185C398.636 148.64 403.188 151.365 409.587 151.365C415.919 151.365 420.395 148.64 423.004 143.185C425.613 137.737 426.91 129.809 426.91 119.415C426.91 109.075 425.592 101.276 422.95 96.0111C420.3 90.7326 415.783 88.0898 409.377 88.0898C403.114 88.0898 398.636 90.7191 395.919 95.9501C393.208 101.188 391.85 109.007 391.85 119.415ZM468.446 119.415C468.446 139.218 463.255 154.666 452.848 165.74C442.447 176.82 427.889 182.363 409.173 182.363C391.225 182.363 376.937 176.697 366.333 165.366C355.715 154.034 350.409 138.722 350.409 119.415C350.409 99.673 355.607 84.3331 366.014 73.3955C376.421 62.458 391.014 56.9893 409.805 56.9893C421.415 56.9893 431.687 59.5234 440.586 64.5845C449.492 69.6457 456.368 76.8944 461.198 86.3373C466.035 95.7667 468.446 106.799 468.446 119.415Z" fill="black"/>
<path d="M484.652 180.224H525.468V117.832V59.1294H484.652V180.224Z" fill="black"/>
<path d="M484.651 44.4818H525.467V17.1924H484.651V44.4818Z" fill="black"/>
<path d="M608.157 149.337C613.667 149.337 620.229 147.938 627.885 145.159V175.628C622.382 178.046 617.151 179.779 612.179 180.805C607.206 181.844 601.37 182.36 594.692 182.36C580.989 182.36 571.111 178.916 565.045 172.041C559.005 165.166 555.976 154.609 555.976 140.363V90.4443H541.683V59.1398H555.976V28.2158L597.104 21.062V59.1398H623.144V90.4443H597.104V137.578C597.104 145.417 600.793 149.337 608.157 149.337Z" fill="black"/>
<path d="M702.62 149.337C708.129 149.337 714.693 147.938 722.349 145.159V175.628C716.853 178.046 711.614 179.779 706.641 180.805C701.662 181.844 695.846 182.36 689.155 182.36C675.452 182.36 665.575 178.916 659.522 172.041C653.469 165.166 650.44 154.609 650.44 140.363V90.4443H636.139V59.1398H650.44V27.747L691.56 21.062V59.1398H717.613V90.4443H691.56V137.578C691.56 145.417 695.249 149.337 702.62 149.337Z" fill="black"/>
<path d="M773.847 104.662C774.404 98.0317 776.3 93.1744 779.533 90.0697C782.781 86.9719 786.789 85.4231 791.585 85.4231C796.816 85.4231 800.974 87.162 804.058 90.6675C807.162 94.1526 808.779 98.8198 808.909 104.662H773.847ZM831.402 71.2655C821.701 61.7546 807.937 56.9922 790.131 56.9922C771.415 56.9922 757.013 62.4609 746.918 73.3984C736.829 84.336 731.781 100.029 731.781 120.478C731.781 140.281 737.237 155.552 748.12 166.272C759.01 176.993 774.302 182.36 793.996 182.36C803.453 182.36 811.592 181.714 818.413 180.43C825.193 179.16 831.755 176.863 838.121 173.548L831.85 146.259C827.224 148.147 822.821 149.601 818.664 150.559C812.658 151.952 806.069 152.652 798.895 152.652C791.029 152.652 784.819 150.729 780.267 146.884C775.716 143.032 773.29 137.72 773.012 130.953H845.96V112.359C845.96 94.472 841.109 80.7696 831.402 71.2655Z" fill="black"/>
<path d="M205.818 104.662C206.375 98.0317 208.271 93.1744 211.504 90.0697C214.745 86.9719 218.76 85.4231 223.564 85.4231C228.781 85.4231 232.938 87.162 236.029 90.6675C239.134 94.1526 240.744 98.8198 240.887 104.662H205.818ZM263.38 71.2655C253.672 61.7546 239.915 56.9922 222.103 56.9922C203.379 56.9922 188.984 62.4609 178.895 73.3984C168.807 84.336 163.753 100.029 163.753 120.478C163.753 140.281 169.202 155.552 180.098 166.272C190.982 176.993 206.273 182.36 225.968 182.36C235.424 182.36 243.563 181.714 250.383 180.43C257.163 179.16 263.727 176.863 270.099 173.548L263.822 146.259C259.195 148.147 254.793 149.601 250.642 150.559C244.623 151.952 238.04 152.652 230.865 152.652C223.006 152.652 216.791 150.729 212.239 146.884C207.68 143.032 205.262 137.72 204.984 130.953H277.932V112.359C277.932 94.472 273.081 80.7696 263.38 71.2655Z" fill="black"/>
</svg>
