<svg width="104" height="41" viewBox="0 0 104 41" fill="none" xmlns="http://www.w3.org/2000/svg">
<g clip-path="url(#clip0_612_73)">
<mask id="mask0_612_73" style="mask-type:luminance" maskUnits="userSpaceOnUse" x="0" y="0" width="104" height="41">
<path d="M104 0H0V41H104V0Z" fill="white"/>
</mask>
<g mask="url(#mask0_612_73)">
<path d="M62.2098 16.934C63.0778 16.934 63.7298 16.57 64.1758 16.07V14.086C62.5778 14.184 61.0198 14.586 61.0198 15.895C61.0198 16.512 61.4998 16.934 62.2098 16.934ZM64.1758 12.527V11.625C64.1758 10.852 63.7298 10.391 62.7498 10.391C61.7698 10.391 60.7298 10.797 59.4598 11.411L58.4598 9.33196C59.8438 8.64096 61.4598 8.15996 62.8668 8.15996C65.8278 8.15996 66.9838 9.60196 66.9838 11.719V16.031C66.9838 16.586 67.3128 16.84 67.8318 16.84V18.781C65.8868 18.781 65.0778 18.492 64.4998 17.511C63.6368 18.434 62.6758 18.953 61.2898 18.953C59.4798 18.953 58.2098 17.859 58.2098 16.223C58.2098 13.969 60.3438 12.797 64.1758 12.527ZM69.5738 8.38996H72.2298L72.3628 9.58196C73.1168 8.79696 74.2108 8.14096 75.5028 8.14096C77.8128 8.14096 78.7928 9.56296 78.7928 11.895V18.723H75.9648V11.816C75.9648 10.891 75.5778 10.258 74.6168 10.258C73.7498 10.258 72.9998 10.699 72.3828 11.468V18.723H69.5738M53.3518 5.25396V14.223C53.3518 15.605 52.6758 16.395 51.5038 16.395C50.7138 16.395 50.0978 16.008 49.6138 15.355L47.6838 17.102C48.6798 18.305 50.0268 18.957 51.6558 18.957C54.4648 18.957 56.2578 17.359 56.2578 14.277V5.25396M53.0468 27.469C51.5698 27.094 50.2928 26.769 50.2928 25.672C50.2928 24.758 51.1678 24.141 52.4688 24.141C53.6908 24.141 54.9488 24.441 56.1128 25.004L57.1248 22.852C55.5348 22.109 53.9648 21.746 52.3318 21.746C49.4368 21.746 47.4138 23.379 47.4138 25.711C47.4138 28.676 49.8398 29.305 51.9838 29.863C53.4838 30.253 54.7808 30.59 54.7808 31.715C54.7808 32.699 53.9178 33.285 52.4688 33.285C51.2148 33.285 49.8048 32.863 48.4838 32.09L47.1758 34.238C48.6128 35.118 50.6868 35.68 52.4878 35.68C55.6798 35.68 57.6638 34.145 57.6638 31.676C57.6638 28.633 55.1048 27.988 53.0468 27.469ZM59.9408 27.113H58.3048V25.113H59.9408V22.535H62.7698V25.113H65.0818V27.113H62.7698V32.253C62.7698 33.02 63.0588 33.406 63.7148 33.406C64.2348 33.406 64.7148 33.234 65.1168 32.946L66.1568 34.636C65.2905 35.3026 64.23 35.6678 63.1368 35.676C60.9798 35.676 59.9408 34.621 59.9408 32.309M67.4408 25.113H70.0388L70.2298 26.711C71.0198 25.324 71.9998 24.824 73.1758 24.824C73.6558 24.824 74.0978 24.902 74.4458 25.035L74.0388 27.613C73.5954 27.454 73.1269 27.3761 72.6558 27.383C71.5978 27.383 70.8858 28.039 70.2498 29.23V35.445H67.4408M97.6288 27.113H95.9918V25.113H97.6288V22.535H100.457V25.113H102.77V27.113H100.457V32.253C100.457 33.02 100.747 33.406 101.398 33.406C101.918 33.406 102.398 33.234 102.805 32.946L103.844 34.636C102.977 35.3026 101.917 35.6678 100.824 35.676C98.6678 35.676 97.6288 34.621 97.6288 32.309M85.7378 10.156C87.0858 10.156 87.5858 11.156 87.5858 12.465H83.4098C83.6798 10.965 84.5818 10.156 85.7378 10.156ZM85.6598 8.11696C82.7928 8.11696 80.4838 10.157 80.4838 13.469C80.4838 16.929 82.6408 18.949 85.6798 18.949C87.2027 18.9519 88.689 18.4823 89.9338 17.605L88.7578 15.813C87.8948 16.352 86.9298 16.699 85.8908 16.699C84.4648 16.699 83.6518 15.969 83.4058 14.5H90.0698C90.1448 14.059 90.2578 13.598 90.2578 12.832C90.2578 10.059 88.6248 8.11696 85.6598 8.11696ZM90.6598 26.883C92.0038 26.883 92.5038 27.883 92.5038 29.191H88.3278C88.5978 27.691 89.5038 26.883 90.6598 26.883ZM90.5818 24.843C87.7148 24.843 85.4018 26.883 85.4018 30.195C85.4018 33.656 87.5588 35.68 90.6018 35.68C92.1408 35.68 93.5818 35.215 94.8518 34.332L93.6798 32.539C92.8118 33.079 91.8518 33.426 90.8118 33.426C89.3818 33.426 88.5698 32.696 88.3278 31.226H94.9878C95.0658 30.786 95.1798 30.324 95.1798 29.559C95.1798 26.785 93.5428 24.843 90.5818 24.843ZM79.8548 26.883C81.2028 26.883 81.7028 27.883 81.7028 29.191H77.5268C77.7968 27.691 78.7028 26.883 79.8548 26.883ZM79.7808 24.843C76.9138 24.843 74.6008 26.883 74.6008 30.195C74.6008 33.656 76.7578 35.68 79.7968 35.68C81.3398 35.68 82.7808 35.215 84.0548 34.332L82.8788 32.539C82.0118 33.079 81.0508 33.426 80.0118 33.426C78.5818 33.426 77.7698 32.696 77.5228 31.226H84.1878C84.2658 30.786 84.3778 30.324 84.3778 29.559C84.3778 26.789 82.7418 24.843 79.7808 24.843ZM6.47984 28.234C9.24984 32.961 14.3898 36.137 20.2538 36.121C29.0238 36.094 36.1408 28.941 36.1168 20.168C36.0938 11.395 28.9368 4.27796 20.1638 4.30096C11.3938 4.32396 4.27684 11.484 4.30084 20.254C4.30578 21.3009 4.41296 22.3449 4.62084 23.371C4.65184 23.5 4.78484 23.571 4.91084 23.539L7.12484 22.989C7.15602 22.9821 7.18553 22.9691 7.21168 22.9508C7.23783 22.9325 7.2601 22.9092 7.2772 22.8823C7.29431 22.8553 7.30591 22.8252 7.31134 22.7938C7.31677 22.7623 7.31592 22.7301 7.30884 22.699H7.31184C7.15516 21.8907 7.07547 21.0693 7.07384 20.246C7.05384 13.004 12.9298 7.09396 20.1718 7.07396C27.4178 7.05396 33.3278 12.934 33.3438 20.176C33.3668 27.418 27.4878 33.328 20.2458 33.348C15.4488 33.359 11.2378 30.785 8.93784 26.941C8.907 26.8845 8.85589 26.8419 8.79482 26.8216C8.73376 26.8014 8.66729 26.8051 8.60884 26.832L6.58184 27.902C6.52437 27.9325 6.48136 27.9847 6.46224 28.0469C6.44313 28.1091 6.44945 28.1764 6.47984 28.234Z" fill="black"/>
<path d="M28.5819 23.648L30.6019 24.73C30.7219 24.793 30.8819 24.758 30.9299 24.629C31.503 23.2603 31.803 21.7928 31.8129 20.309C31.8669 13.91 26.7029 8.66401 20.3049 8.60901H20.2069C13.8629 8.60901 8.65985 13.769 8.60485 20.113C8.55485 26.512 13.7149 31.762 20.1129 31.813L20.2109 31.816C23.2419 31.816 26.0079 30.636 28.0819 28.715C28.1839 28.625 28.2029 28.469 28.1089 28.367L26.3869 26.813C26.2849 26.723 26.1329 26.743 26.0429 26.828L26.0389 26.824C24.4337 28.2527 22.3598 29.0423 20.2109 29.043H20.1369C15.2659 29 11.3399 25.008 11.3789 20.137C11.4179 15.309 15.3789 11.379 20.2069 11.379H20.2849C25.1519 11.422 29.0819 15.418 29.0389 20.285C29.0306 21.3208 28.8389 22.347 28.4729 23.316C28.4458 23.3749 28.442 23.4418 28.4622 23.5034C28.4825 23.5649 28.5252 23.6166 28.5819 23.648Z" fill="black"/>
<path d="M31.895 3.72701C31.785 3.65201 31.637 3.67201 31.563 3.78501L30.265 5.66001C30.19 5.77001 30.202 5.92201 30.312 6.00001C34.752 9.16801 37.659 14.355 37.655 20.215C37.655 29.832 29.831 37.652 20.214 37.652C10.597 37.652 2.772 29.828 2.772 20.207C2.772 10.594 10.597 2.77001 20.218 2.77301C22.2509 2.77137 24.2683 3.12711 26.178 3.82401C26.2377 3.84535 26.3034 3.84268 26.3613 3.81657C26.4191 3.79046 26.4645 3.74294 26.488 3.68401L27.304 1.54301C27.3253 1.48482 27.3233 1.42067 27.2986 1.36387C27.2738 1.30708 27.2281 1.262 27.171 1.23801C24.9452 0.416981 22.5914 -0.00219536 20.219 8.6463e-06C9.07 -0.00399135 0.004 9.06301 0 20.21C0 31.355 9.07 40.426 20.215 40.426C31.359 40.426 40.43 31.359 40.43 20.215C40.43 13.415 37.055 7.39101 31.895 3.72701Z" fill="black"/>
</g>
</g>
<defs>
<clipPath id="clip0_612_73">
<rect width="104" height="41" fill="white"/>
</clipPath>
</defs>
</svg>
