<svg width="196" height="39" viewBox="0 0 196 39" fill="none" xmlns="http://www.w3.org/2000/svg">
<path d="M34.3747 32.3148C32.984 33.6348 31.456 34.6761 29.8133 35.3948C29.4893 35.5108 29.164 35.6494 28.8627 35.7414C29.164 35.5561 29.4893 35.3481 29.8133 35.1401C31.48 34.0054 33.0307 32.6628 34.3747 31.0868C36.992 28.0068 38.7493 24.0721 38.6813 19.2788C38.588 14.5334 36.8987 10.7108 34.3747 7.70146C33.0547 6.15079 31.48 4.80546 29.8133 3.64946C29.4893 3.44012 29.164 3.23212 28.8627 3.02412C29.164 3.18679 29.4893 3.32546 29.8133 3.48546C31.48 4.32012 33.008 5.38279 34.3747 6.65879C37.6387 9.78279 39.7693 14.1374 39.8613 19.2788C39.9547 24.4414 37.6853 29.1414 34.3747 32.3148ZM26.6173 26.6134C26.0613 26.9361 25.5067 27.1694 24.9507 27.2814C25.552 26.8881 26.1093 26.4734 26.6173 26.0108C28.284 24.4601 29.304 22.4441 29.28 19.4121C29.2347 16.4241 28.2387 14.3868 26.6173 12.8361C26.1093 12.3481 25.552 11.9321 24.9507 11.5161C25.5067 11.7214 26.0613 11.9774 26.6173 12.3014C27.9133 13.0894 29.048 14.2708 29.8133 15.7294C30.3693 16.8188 30.7147 18.0681 30.7387 19.4121C30.7387 20.8014 30.392 22.0974 29.8133 23.2294C29.048 24.6894 27.892 25.8721 26.6173 26.6134ZM13.0587 19.3988C13.0587 14.9801 16.6013 11.0241 20.68 10.8534C24.756 11.0241 28.2973 14.9801 28.2973 19.3988C28.2973 23.8188 24.756 27.7748 20.68 27.9454C16.6013 27.7761 13.0587 23.8188 13.0587 19.3988ZM14.7853 26.6361C13.4893 25.8948 12.3307 24.7148 11.5667 23.2294C10.9627 22.0974 10.6187 20.8014 10.6413 19.4121C10.6413 18.0681 10.988 16.8188 11.5667 15.7294C12.3067 14.2468 13.4667 13.0668 14.7853 12.2788C15.2947 11.9774 15.8493 11.7214 16.4053 11.5161C15.8053 11.9108 15.2707 12.3281 14.7853 12.7868C13.1173 14.3628 12.1227 16.4014 12.1 19.4121C12.0533 22.4668 13.0947 24.4814 14.7853 26.0334C15.2707 26.4948 15.8053 26.9134 16.4053 27.2814C15.8493 27.1694 15.2947 26.9361 14.7853 26.6361ZM11.544 35.3948C9.89733 34.6761 8.37067 33.6348 6.98 32.3148C3.668 29.1414 1.4 24.4414 1.49333 19.2788C1.58533 14.1374 3.716 9.78279 6.98 6.65879C8.34667 5.38279 9.87467 4.32012 11.544 3.48546C11.8653 3.32546 12.1907 3.18679 12.492 3.02412C12.1907 3.23212 11.8653 3.44012 11.544 3.64946C9.87467 4.80546 8.3 6.15079 6.98 7.70146C4.45733 10.7108 2.76667 14.5334 2.672 19.2788C2.604 24.0721 4.36533 28.0068 6.98 31.0868C8.324 32.6628 9.87467 34.0054 11.544 35.1401C11.8653 35.3481 12.1907 35.5561 12.492 35.7414C12.1907 35.6494 11.8653 35.5108 11.544 35.3948ZM20.6773 0.500122C9.272 0.500122 0.5 8.96146 0.5 19.3988C0.5 29.8361 9.272 38.2988 20.6773 38.2988C32.0827 38.2988 40.8573 29.8361 40.8573 19.3988C40.8573 8.96146 32.0853 0.500122 20.6773 0.500122Z" fill="black"/>
<path fill-rule="evenodd" clip-rule="evenodd" d="M184.436 19.6706V24.4586H195.828V26.4586H182.347V11.4559H195.828V13.4519H184.436V17.7239H192.123V19.7132H184.436V19.6706ZM113.722 12.7879C108.984 12.7879 107.175 16.6639 107.175 18.8639C107.175 23.3826 111.192 25.4132 113.726 25.4132C114.419 25.4039 114.78 25.3132 115.052 25.2226C114.679 24.8479 113.418 23.8839 111.73 24.2719C112.115 23.4799 114.11 22.5652 117.162 24.4626C119.156 23.1332 120.176 21.5212 120.176 19.0559C120.176 14.7706 116.279 12.7879 113.722 12.7879ZM113.726 11.2706C116.238 11.2706 122.552 12.4026 122.552 19.0559C122.552 23.2052 119.324 25.0332 118.468 25.5079L120.84 27.5972L119.703 29.1146L116.663 26.5532C115.887 26.8559 114.748 27.0012 113.722 27.0279C106.074 27.0279 104.803 20.7852 104.803 19.0666C104.803 13.8092 109.032 11.2706 113.726 11.2706ZM177.224 11.4559H179.311V26.4586H177.224V11.5559V11.4559ZM87.8111 18.9599C87.8111 24.3906 96.0458 27.3266 101.854 22.1879L103.091 23.6092C102.899 23.7986 100.351 26.6452 94.9311 26.6452C91.0485 26.6452 85.3431 24.9266 85.3431 18.9599C85.3431 16.8519 86.6391 14.4146 89.1751 12.9106C92.4045 10.8092 98.0685 10.4999 102.427 13.2639L101.384 14.7826C96.3485 11.1026 87.8111 13.3412 87.8111 18.9599ZM65.2218 14.6839L58.4845 26.7412L51.9325 14.6839V26.4559H49.8418V11.4586H52.6911L58.5765 22.6599L64.6551 11.4559H67.3071V26.4559H65.2218V14.6839ZM77.5618 13.4519L80.7898 20.7586H74.2365L77.5618 13.4519ZM76.5191 11.4559H78.6071L85.8178 26.4586H83.5405L81.6511 22.5639H73.4845L71.5818 26.4559H69.4005L76.5191 11.4559ZM147.972 13.4519L151.203 20.7586H144.648L147.972 13.4519ZM146.93 11.4559H149.019L156.231 26.4586H153.951L152.064 22.5639H143.895L141.992 26.4559H139.811L146.93 11.4559ZM168.584 11.4559C173.827 11.4559 173.9 14.9706 173.9 15.6359C173.9 16.5906 173.572 19.1852 169.347 19.8106L174.092 26.4586H171.527L167.066 19.9052H160.614V26.4586H158.526V11.4559H168.584ZM167.923 18.1986C171.78 18.1599 171.719 16.0172 171.719 15.6359C171.719 15.3519 171.6 13.1639 168.492 13.1639H167.923H160.614V18.1986H167.923ZM131.695 25.1839C134.684 25.1359 135.915 24.3786 136.404 23.8786C136.86 23.3826 137.042 22.4666 137.042 21.7092V11.4559H139.038V21.8066C139.038 23.1679 138.988 24.1986 137.899 25.1252C137.287 25.6532 136.046 26.8212 131.695 26.8212C127.346 26.8212 126.106 25.6532 125.494 25.1252C124.403 24.1986 124.356 23.1679 124.356 21.8066V11.4559H126.348V21.7092C126.348 22.4666 126.531 23.3826 126.986 23.8786C127.476 24.3786 128.707 25.1359 131.695 25.1839Z" fill="black"/>
</svg>
