<svg width="328" height="38" viewBox="0 0 328 38" fill="none" xmlns="http://www.w3.org/2000/svg">
<g clip-path="url(#clip0_4_3)">
<path d="M10.8 19.7C12.7 22.2 15 24.6 17.3 26.9C21.3 30.9 25.8 34.5 30.4 37.2H17C10.1 32.2 4 25.5 0 18.8C4 12.2 10.1 5.5 17 0.5H30.4C25.8 3.3 21.3 6.8 17.3 10.8C15 13.1 12.7 15.6 10.8 18C10.6 18.2 10.5 18.5 10.5 18.8C10.5 19.2 10.6 19.5 10.8 19.7ZM78.5 19.7C76.6 22.2 74.3 24.6 72 26.9C68 30.9 63.5 34.5 58.9 37.2H72.3C79.2 32.2 85.3 25.5 89.3 18.8C85.3 12.1 79.2 5.4 72.3 0.4H58.9C63.5 3.3 68 6.8 72 10.8C74.3 13.1 76.6 15.6 78.5 18C78.7 18.2 78.8 18.5 78.8 18.8C78.8 19.2 78.7 19.5 78.5 19.7ZM44.6 26.8C49 26.8 52.5 23.3 52.5 18.9C52.5 14.5 49 11 44.6 11C40.2 11 36.7 14.5 36.7 18.9C36.8 23.2 40.3 26.8 44.6 26.8ZM44.6 0.5C54.8 0.5 63 8.7 63 18.9C63 29.1 54.8 37.3 44.6 37.3C34.4 37.3 26.2 29.1 26.2 18.9C26.3 8.7 34.5 0.5 44.6 0.5ZM230.6 12.6H235.7L225.7 37.3H222.2L215.3 20L208.4 37.3H204.9L194.9 12.6H200L206.8 29.5L213.6 12.6H217.1L223.9 29.5L230.6 12.6ZM289.9 21.8C290.7 18.6 293.6 16.4 296.8 16.4C299.7 16.4 302.6 18.6 303.3 21.8H289.9ZM308.5 26C308.6 25.5 308.6 25.2 308.6 24.9C308.6 17.6 303.6 12 296.7 12C289.7 12 284.7 17.5 284.7 24.9C284.7 32.3 290.3 37.8 297.5 37.8C302.5 37.8 306.1 35.5 307.9 33.2L304.6 30.1C303.2 31.7 301.2 33.5 297.5 33.5C293.2 33.5 289.8 30.2 289.5 26H308.5ZM317.8 15.5C319 13.8 321.6 12.1 325.2 12.1C325.7 12.1 326.6 12.2 327.1 12.3L326.5 17.1C325.9 16.9 325.3 16.9 324.6 16.9C322 16.9 319.3 18.7 317.9 21V37.3H312.9V12.6H317.7V15.5M255.7 29.6C254 31.9 251.4 33.1 248.9 33.1C244.1 33.1 240.7 29.4 240.7 25C240.7 20.7 243.9 16.9 248.6 16.9C251.6 16.9 254.1 18.4 255.6 20.4V29.6H255.7ZM255.9 14.9C253.6 13 251 12.1 248.2 12.1C245.9 12.1 243.8 12.7 242.2 13.7C238.5 15.9 235.8 20.1 235.8 25C235.8 29.9 238.4 34 242.1 36.2C243.8 37.2 246.1 37.8 248.3 37.8C251.2 37.8 253.9 36.8 255.9 35V37.3H260.7V12.6H255.9V14.9ZM143.4 21.8C144.2 18.6 147.1 16.4 150.3 16.4C153.2 16.4 156.1 18.6 156.8 21.8H143.4ZM162 24.9C162 17.6 157 12 150.1 12C143.1 12 138.1 17.5 138.1 24.9C138.1 32.3 143.7 37.8 150.9 37.8C155.9 37.8 159.5 35.5 161.3 33.2L158 30.1C156.6 31.7 154.6 33.5 150.9 33.5C146.6 33.5 143.2 30.2 142.9 26H161.9C162 25.5 162 25.2 162 24.9ZM171.6 37.3H166.6V0H171.6V37.3ZM130 0.5H133.7V37.3H128.4V12.6L117.6 29.5H114L103.2 12.6V37.3H97.9V0.5H101.6L115.9 23L130 0.5ZM184.7 5.8V12.6H192.6V17.1H184.7V28.7C184.7 30 184.8 31.1 185.4 31.9C186.1 32.7 187.5 33.2 188.8 33.2C189.5 33.2 190.8 33.1 191.5 32.9L192.5 37.4C191.6 37.7 190 37.9 188.6 37.9C185.5 37.9 183.2 36.8 181.6 35C180.1 33.4 179.6 31.1 179.6 28.4V17.1H176V12.6H179.6V5.8H184.7ZM269 5.8V12.6H265.4V17.1H269V28.4C269 31.1 269.5 33.3 271 35C272.6 36.8 274.9 37.9 278 37.9C279.4 37.9 280.9 37.7 281.9 37.4L280.9 32.9C280.2 33.1 278.9 33.2 278.2 33.2C276.9 33.2 275.5 32.7 274.8 31.9C274.2 31.2 274.1 30.1 274.1 28.7V17.2H282V12.7H274V5.8H269Z" fill="black"/>
</g>
<defs>
<clipPath id="clip0_4_3">
<rect width="327.2" height="37.8" fill="white"/>
</clipPath>
</defs>
</svg>
