<svg width="948" height="191" viewBox="0 0 948 191" fill="none" xmlns="http://www.w3.org/2000/svg">
<g clip-path="url(#clip0_4_5)">
<path d="M31.06 125.96C31.06 136.94 33.47 145.37 36.62 150.47C40.75 157.15 46.91 159.98 53.19 159.98C61.29 159.98 68.7 157.97 82.98 138.22C94.42 122.39 107.9 100.17 116.97 86.24L132.33 62.64C143 46.25 155.35 28.03 169.51 15.68C181.07 5.6 193.54 0 206.09 0C227.16 0 247.23 12.21 262.59 35.11C279.4 60.19 287.56 91.78 287.56 124.38C287.56 143.76 283.74 158 277.24 169.25C270.96 180.13 258.72 191 238.13 191V159.98C255.76 159.98 260.16 143.78 260.16 125.24C260.16 98.82 254 69.5 240.43 48.55C230.8 33.69 218.32 24.61 204.59 24.61C189.74 24.61 177.79 35.81 164.36 55.78C157.22 66.39 149.89 79.32 141.66 93.91L132.6 109.96C114.4 142.23 109.79 149.58 100.69 161.71C84.74 182.95 71.12 191 53.19 191C31.92 191 18.47 181.79 10.14 167.91C3.34 156.6 0 141.76 0 124.85L31.06 125.96Z" fill="black"/>
<path d="M24.49 37.3C38.73 15.35 59.28 0 82.85 0C96.5 0 110.07 4.04 124.24 15.61C139.74 28.26 156.26 49.09 176.87 83.42L184.26 95.74C202.1 125.46 212.25 140.75 218.19 147.96C225.83 157.22 231.18 159.98 238.13 159.98C255.76 159.98 260.16 143.78 260.16 125.24L287.56 124.38C287.56 143.76 283.74 158 277.24 169.25C270.96 180.13 258.72 191 238.13 191C225.33 191 213.99 188.22 201.45 176.39C191.81 167.31 180.54 151.18 171.87 136.68L146.08 93.6C133.14 71.98 121.27 55.86 114.4 48.56C107.01 40.71 97.51 31.23 82.35 31.23C70.08 31.23 59.66 39.84 50.94 53.01L24.49 37.3Z" fill="black"/>
<path d="M82.35 31.23C70.08 31.23 59.66 39.84 50.94 53.01C38.61 71.62 31.06 99.34 31.06 125.96C31.06 136.94 33.47 145.37 36.62 150.47L10.14 167.91C3.34 156.6 0 141.76 0 124.85C0 94.1 8.44 62.05 24.49 37.3C38.73 15.35 59.28 0 82.85 0L82.35 31.23Z" fill="black"/>
<path d="M347.94 6.04H383.87L444.96 116.56L506.06 6.04H541.21V187.64H511.9V48.46L458.32 144.84H430.82L377.25 48.46V187.64H347.94V6.04ZM633.05 73.75C612.03 73.75 599.37 89.57 596.34 109.16H667.68C666.21 88.98 654.57 73.75 633.05 73.75ZM567.28 120.32C567.28 79.1 593.92 49.1 633.56 49.1C672.55 49.1 695.83 78.72 695.83 122.52V130.57H596.34C599.87 151.88 614.01 166.24 636.81 166.24C655 166.24 666.37 160.69 677.15 150.54L692.72 169.61C678.05 183.1 659.39 190.88 635.77 190.88C592.86 190.88 567.28 159.59 567.28 120.32ZM731.37 76.35H704.39V52.35H731.37V12.66H759.65V52.35H800.64V76.35H759.65V137.18C759.65 157.95 766.29 165.33 782.61 165.33C790.06 165.33 794.33 164.69 800.64 163.64V187.38C792.78 189.6 785.28 190.62 777.16 190.62C746.63 190.62 731.37 173.94 731.37 140.55V76.35ZM919.72 99.69C914.04 85.35 901.37 74.79 882.75 74.79C858.55 74.79 843.06 91.96 843.06 119.93C843.06 147.2 857.32 165.2 881.59 165.2C900.67 165.2 914.29 154.1 919.72 140.29V99.69ZM948 187.64H920.24V168.7C912.48 179.85 898.36 190.88 875.49 190.88C838.71 190.88 814.13 160.09 814.13 119.93C814.13 79.39 839.3 49.1 877.05 49.1C895.71 49.1 910.35 56.56 920.24 69.73V52.35H948V187.64Z" fill="black"/>
</g>
<defs>
<clipPath id="clip0_4_5">
<rect width="948" height="191" fill="white"/>
</clipPath>
</defs>
</svg>
