<svg width="155" height="44" viewBox="0 0 155 44" fill="none" xmlns="http://www.w3.org/2000/svg">
<path d="M114.297 33.328C109.004 33.328 105.715 30.262 105.715 25.32C105.715 20.191 108.75 17 113.637 17H114.047C114.66 17 115.504 17.02 116.657 17.164V10.973H120.109V32.77C120.109 32.77 116.829 33.328 114.297 33.328ZM114.266 19.718C110.922 19.718 109.296 21.523 109.296 25.234C109.296 28.566 111.258 30.637 114.41 30.637C115.016 30.637 115.71 30.597 116.656 30.516V19.94C115.711 19.788 114.949 19.718 114.266 19.718ZM67.0116 32.828L57.6866 16.555L57.6836 32.828H54.4336V12.227H58.9836L68.3086 28.355L68.3046 12.227H71.5976V32.828H67.0116ZM96.7146 33.145C95.1446 33.145 93.5076 32.969 91.5586 32.594L91.3476 32.554V29.676L91.6556 29.742C93.3746 30.109 94.8586 30.422 96.3436 30.422C97.5426 30.422 100.336 30.234 100.336 28.469C100.336 26.989 98.4056 26.617 96.8556 26.32L96.7576 26.3C96.4676 26.246 96.1946 26.191 95.9646 26.133C93.6906 25.543 91.2646 24.656 91.2646 21.609C91.2646 18.637 93.6166 16.934 97.7186 16.934C99.6876 16.934 101.117 17.144 102.266 17.316L102.824 17.398V20.191L102.527 20.137C101.227 19.898 99.7026 19.652 98.2376 19.652C96.6086 19.652 94.6756 19.957 94.6756 21.406C94.6756 22.609 96.2576 22.953 98.0896 23.352C100.652 23.906 103.828 24.602 103.828 28.098C103.828 31.305 101.238 33.145 96.7146 33.145ZM129.8 33.145C126.227 33.145 122.918 32.515 122.918 27.953C122.918 22.988 128.035 22.988 131.094 22.988C131.398 22.988 132.836 23.055 133.277 23.074C133.273 20.289 133.238 19.625 129.199 19.625C127.598 19.625 125.82 19.941 124.25 20.223L123.95 20.277V17.527L124.152 17.484C125.972 17.114 127.727 16.934 129.516 16.934C133.43 16.934 136.746 17.328 136.746 22.184V32.774L136.508 32.801C133.797 33.105 131.644 33.145 129.8 33.145ZM131.008 25.445C128.058 25.445 126.23 25.879 126.23 28.039C126.23 30.539 128.562 30.746 130.75 30.746C131.566 30.746 133.035 30.641 133.484 30.609V25.531C132.852 25.504 131.207 25.445 131.008 25.445ZM81.3626 33.145C77.7846 33.145 74.4766 32.515 74.4766 27.953C74.4766 22.988 79.5936 22.988 82.6516 22.988C82.9566 22.988 84.3976 23.055 84.8396 23.074C84.8356 20.289 84.7966 19.625 80.7576 19.625C79.1556 19.625 77.3776 19.941 75.8076 20.223L75.5076 20.277V17.527L75.7146 17.484C77.478 17.1194 79.2739 16.9351 81.0746 16.934C84.9876 16.934 88.3046 17.328 88.3046 22.184V32.774L88.0656 32.801C85.3556 33.105 83.2026 33.145 81.3626 33.145ZM82.5656 25.445C79.6166 25.445 77.7926 25.879 77.7926 28.039C77.7926 30.539 80.1206 30.746 82.3086 30.746C83.1286 30.746 84.5976 30.641 85.0466 30.609V25.531C84.4096 25.504 82.7646 25.445 82.5656 25.445Z" fill="black"/>
<mask id="mask0_0_1" style="mask-type:luminance" maskUnits="userSpaceOnUse" x="139" y="16" width="16" height="24">
<path d="M139 16H154.027V40H139V16Z" fill="white"/>
</mask>
<g mask="url(#mask0_0_1)">
<path d="M150.492 39.8279V33.0699C149.145 33.2579 148.43 33.2579 147.852 33.2579C146.484 33.2579 144.965 32.9609 143.789 32.4649C141.156 31.3699 139.586 28.5899 139.586 25.0229C139.586 23.2429 140.02 19.9879 142.922 18.2339C144.379 17.3639 146.098 16.9919 148.684 16.9919C149.609 16.9919 150.859 17.0619 152.066 17.1319L154.027 17.2339V38.2619L150.492 39.8279ZM148.426 19.7109C144.918 19.7099 143.14 21.4999 143.14 25.0229C143.14 29.5589 145.792 30.5119 148.022 30.5119C148.565 30.5119 149.175 30.5119 150.526 30.3399V19.8089C149.468 19.7389 148.98 19.7109 148.426 19.7109Z" fill="black"/>
</g>
<mask id="mask1_0_1" style="mask-type:luminance" maskUnits="userSpaceOnUse" x="25" y="0" width="27" height="33">
<path d="M25 0.0159912H52V33H25V0.0159912Z" fill="white"/>
</mask>
<g mask="url(#mask1_0_1)">
<path d="M39.0118 0.0159912L27.5938 31.386C27.4526 31.7722 27.2056 32.1109 26.8809 32.3633C26.5562 32.6157 26.167 32.7715 25.7578 32.813V32.828H37.8278C38.7728 32.828 39.5818 32.227 39.8828 31.387L51.3048 0.0159912H39.0118Z" fill="black"/>
</g>
<path d="M24.7731 32.352C25.4731 32.352 26.0861 32.004 26.4611 31.477C26.5001 31.422 26.6371 31.23 26.7341 30.969L30.9221 19.457L28.4721 12.734C28.3294 12.3936 28.0982 12.0975 27.8026 11.8764C27.5069 11.6554 27.1576 11.5174 26.7907 11.4768C26.4237 11.4362 26.0527 11.4944 25.7158 11.6455C25.379 11.7966 25.0887 12.035 24.8751 12.336C24.8351 12.391 24.6721 12.636 24.6021 12.844L20.4141 24.352L22.8751 31.102C23.0347 31.473 23.2995 31.7891 23.6369 32.0113C23.9742 32.2334 24.3692 32.3519 24.7731 32.352Z" fill="black"/>
<mask id="mask2_0_1" style="mask-type:luminance" maskUnits="userSpaceOnUse" x="-1" y="10" width="27" height="34">
<path d="M-1 10H26V43.797H-1V10Z" fill="white"/>
</mask>
<g mask="url(#mask2_0_1)">
<path d="M25.6683 10.984H13.4653C12.5203 10.984 11.7113 11.582 11.4063 12.426L-0.0117188 43.796H12.2813L23.7003 12.427C23.8484 12.0189 24.1147 11.6641 24.4652 11.4078C24.8156 11.1516 25.2345 11.0054 25.6683 10.988V10.984Z" fill="black"/>
</g>
</svg>
