<svg width="112" height="21" viewBox="0 0 112 21" fill="none" xmlns="http://www.w3.org/2000/svg">
<path d="M17.6045 10.0104C17.6045 3.67708 21.5576 0.5 26.4326 0.5C31.3024 0.5 35.2555 3.67708 35.2555 10.0104C35.2555 16.3594 31.3024 19.5208 26.4326 19.5208C21.5576 19.5208 17.6045 16.3906 17.6045 10.0104ZM26.4326 17.1094C28.8337 17.1094 30.7816 14.5937 30.7816 10.0104C30.7816 5.46874 28.8337 2.91146 26.4326 2.91146C24.0264 2.91146 22.0732 5.46874 22.0732 10.0104C22.0732 14.5677 24.0264 17.1094 26.4326 17.1094Z" fill="black"/>
<path d="M0.5 1.19263V18.8228H3.56771V6.97909L13.026 18.8228H15.6042V1.19263H12.6875V10.9114L4.82812 1.19263H0.5Z" fill="black"/>
<path d="M99.193 1.19263L92.042 18.8228H95.1305L97.0993 13.9739H103.594L105.589 18.8228H110.599L103.375 1.19263H99.193ZM98.0993 11.4426L100.334 5.91659L102.573 11.4426H98.0993Z" fill="black"/>
<path d="M70.4216 12.7448C70.3382 14.3594 70.2132 15.9584 68.4268 16.5573C67.6299 16.8177 66.1663 16.8125 65.3382 16.4844C64.9424 16.323 64.6976 16.1875 64.3903 15.8803C63.7966 15.2917 63.557 14.0417 63.5361 13.2292V1.19275H58.9424V12.7448C58.984 14.3386 59.2445 15.9428 60.2809 17.2292C62.057 19.4375 65.3226 19.75 67.9632 19.4219C69.6038 19.2188 71.0413 18.6771 72.1976 17.4688C72.9945 16.6355 73.4893 15.323 73.6299 14.1928C73.7184 13.5365 73.7288 13.4271 73.7288 12.7448V1.19275H70.4215L70.4216 12.7448Z" fill="black"/>
<path d="M81.2653 3.67701C83.2913 3.67701 85.3018 3.33326 86.182 5.43743C86.5257 6.27076 86.5518 8.15618 85.7393 8.95826C84.7757 9.91138 83.2966 10.0051 82.0205 10.1145L86.7393 18.8228H91.5778L87.2966 11.0572C89.8486 10.1614 91.0466 8.71867 90.9216 5.96346C90.7861 2.9895 88.2705 1.19263 85.4007 1.19263H76.6924V18.8228H81.2653V3.67701Z" fill="black"/>
<path d="M51.5 18.8228L44.6927 1.19263H41.1146L34.5 18.8228H37.7135L42.1615 6.90618L46.6823 18.8228H51.5Z" fill="black"/>
<path d="M51.7184 1.19263H47.9736L46.833 4.20826L48.458 8.42701L49.0466 6.90618L53.4476 18.8228H58.5309L51.7184 1.19263Z" fill="black"/>
<path d="M43.4007 12.6719L41.1143 18.8229H44.0361L44.8851 16.5052L43.4007 12.6719Z" fill="black"/>
</svg>
