<svg width="140" height="36" viewBox="0 0 140 36" fill="none" xmlns="http://www.w3.org/2000/svg">
<g clip-path="url(#clip0_613_146)">
<path fill-rule="evenodd" clip-rule="evenodd" d="M18.3829 35.9575C8.71398 35.9052 0.914561 28.0241 0.969034 18.3529C1.02048 8.71812 8.84711 0.941406 18.4729 0.941406H18.5705C28.2401 0.993606 36.0357 8.87095 35.9835 18.5413C35.9336 28.2117 28.0548 36.0104 18.3829 35.9575ZM24.19 26.4809V17.166L27.1989 17.1645L18.4772 8.48674L9.75481 17.1645L12.7614 17.166V26.4809H24.19ZM19.5568 5.68368L29.9565 16.0448C30.359 16.4511 30.6082 17.0079 30.6082 17.6238C30.6082 18.8607 29.6065 19.8665 28.3695 19.8707L26.9374 19.8686L26.9395 27.752C26.9395 28.563 26.2873 29.2194 25.4793 29.2258H11.4739C10.6666 29.219 10.0137 28.563 10.0137 27.752L10.0158 19.8686L8.58441 19.8707C7.34743 19.867 6.3457 18.8607 6.3457 17.6238C6.3457 17.0079 6.5939 16.4503 6.99488 16.0441L17.3968 5.68368C17.6654 5.39401 18.0521 5.21387 18.4772 5.21387C18.9032 5.21387 19.2883 5.39393 19.5568 5.68368Z" fill="black"/>
<path d="M49.8682 15.0348C49.8682 13.4037 48.7803 12.7084 46.6074 12.7084C46.1497 12.7084 45.064 12.7524 44.6729 12.7946V17.6865C45.0201 17.708 46.2382 17.7509 46.6074 17.7509C48.8468 17.7509 49.8682 17.1433 49.8682 15.23V15.0348ZM53.1297 26.4491H50.4764C50.2381 26.4491 50.1519 26.2319 50.0422 26.0133L46.9115 20.2089H46.6074C46.0422 20.2089 45.1714 20.144 44.6729 20.1219V26.0132C44.6729 26.2531 44.4989 26.449 44.2583 26.449H42.0839C41.8463 26.449 41.6504 26.253 41.6504 26.0132V11.0552C41.6504 10.621 41.9106 10.4689 42.3457 10.4046C43.476 10.2283 45.0201 10.1201 46.6074 10.1201C49.9559 10.1201 52.8695 11.317 52.8695 15.0347V15.2299C52.8695 17.5344 51.7157 18.9688 49.934 19.6656L53.3476 26.0132C53.3907 26.0782 53.3907 26.1434 53.3907 26.1871C53.3907 26.3407 53.3037 26.4491 53.1297 26.4491Z" fill="black"/>
<path d="M63.8052 26.3181C63.1092 26.4271 62.2611 26.6223 59.6744 26.6223C56.8479 26.6223 54.6523 25.8611 54.6523 22.1646V14.5778C54.6523 10.882 56.8479 10.1201 59.6744 10.1201C62.2611 10.1201 63.1092 10.3161 63.8052 10.425C64.1305 10.469 64.2395 10.577 64.2395 10.882V12.2733C64.2395 12.5116 64.0443 12.7083 63.8052 12.7083H59.3688C58.1091 12.7083 57.6521 13.1426 57.6521 14.5778V16.9262H63.5442C63.7833 16.9262 63.9785 17.1213 63.9785 17.3604V18.9257C63.9785 19.1633 63.7833 19.36 63.5442 19.36H57.6521V22.1646C57.6521 23.6005 58.1091 24.0348 59.3688 24.0348H63.8052C64.0443 24.0348 64.2395 24.23 64.2395 24.4698V25.8612C64.2395 26.1653 64.1305 26.275 63.8052 26.3181Z" fill="black"/>
<path d="M72.2613 13.0117C72.1954 12.7515 72.1305 12.6645 71.9141 12.6645C71.6969 12.6645 71.6319 12.7515 71.566 13.0117L70.0007 19.469H73.8266L72.2613 13.0117ZM78.1322 26.4491H75.8277C75.6311 26.4491 75.4578 26.2751 75.4147 26.0783L74.4137 21.9482H69.4128L68.4119 26.0783C68.3695 26.275 68.1955 26.4491 68.0003 26.4491H65.6951C65.4787 26.4491 65.3047 26.297 65.3047 26.0783C65.3047 26.0564 65.3266 26.0133 65.3266 25.9694L68.8922 12.3384C69.4127 10.3161 70.9781 10.1201 71.914 10.1201C72.8483 10.1201 74.4136 10.3161 74.9349 12.3384L78.5014 25.9694C78.5014 26.0133 78.5228 26.0564 78.5228 26.0783C78.5228 26.297 78.3487 26.4491 78.1322 26.4491Z" fill="black"/>
<path d="M102.451 16.4686C101.278 16.4686 100.364 16.7727 99.4517 17.2516V25.9914C99.4517 26.2313 99.2557 26.4484 99.0159 26.4484H97.0163C96.778 26.4484 96.582 26.2313 96.582 25.9914V14.6203C96.582 14.382 96.778 14.1868 97.0163 14.1868H98.9077C99.146 14.1868 99.3427 14.382 99.3427 14.6203V15.078C100.408 14.2511 101.581 14.0332 102.451 14.0332C102.69 14.0332 102.887 14.2299 102.887 14.469V16.0343C102.887 16.2734 102.69 16.4686 102.451 16.4686Z" fill="black"/>
<path d="M110.944 19.4472C110.944 17.6639 110.14 16.5125 108.616 16.5125C107.097 16.5125 106.291 17.6639 106.291 19.4472V21.2085C106.291 22.9909 107.097 24.1439 108.616 24.1439C110.14 24.1439 110.944 22.9909 110.944 21.2085V19.4472ZM108.616 26.6224C105.205 26.6224 103.422 24.3172 103.422 21.2085V19.4472C103.422 16.3385 105.205 14.0332 108.616 14.0332C112.032 14.0332 113.813 16.3385 113.813 19.4472V21.2085C113.813 24.3172 112.032 26.6224 108.616 26.6224Z" fill="black"/>
<path d="M124.856 26.4491H122.856C122.617 26.4491 122.423 26.254 122.423 26.0133V25.514C121.29 26.2539 120.399 26.6012 119.008 26.6012C117.921 26.6012 116.964 26.319 116.333 25.688C115.528 24.8838 115.246 23.5356 115.246 21.7312V14.643C115.246 14.4039 115.442 14.1875 115.681 14.1875H117.681C117.921 14.1875 118.116 14.4039 118.116 14.643V21.7312C118.116 22.8184 118.204 23.4494 118.616 23.8178C118.921 24.0788 119.291 24.2089 119.964 24.2089C120.77 24.2089 121.812 23.6657 122.423 23.3396V14.643C122.423 14.4039 122.617 14.1875 122.856 14.1875H124.856C125.095 14.1875 125.292 14.4039 125.292 14.643V26.0133C125.292 26.2539 125.095 26.4491 124.856 26.4491Z" fill="black"/>
<path d="M134.314 19.4903C134.314 17.707 133.857 16.3816 131.986 16.3816C131.204 16.3816 130.313 16.4474 129.901 16.5336V24.1212C130.509 24.2083 131.466 24.2732 131.986 24.2732C133.857 24.2732 134.314 22.9478 134.314 21.1645V19.4903ZM131.986 26.6224C131.466 26.6224 130.704 26.5784 129.901 26.4704V30.3183C129.901 30.5581 129.705 30.7525 129.464 30.7525H127.465C127.226 30.7525 127.03 30.558 127.03 30.3183V15.1854C127.03 14.8594 127.117 14.7293 127.617 14.5984C128.966 14.2519 130.596 14.0332 131.986 14.0332C135.487 14.0332 137.184 16.0994 137.184 19.4903V21.1646C137.184 24.557 135.487 26.6224 131.986 26.6224Z" fill="black"/>
<path d="M94.0474 26.2554C92.9602 26.4725 91.5485 26.6261 89.3106 26.6261C86.9637 26.6261 83.4873 25.082 83.4873 19.9547V16.8256C83.4873 11.6772 86.7912 10.1338 89.3764 10.1338C91.4615 10.1338 93.3294 10.3948 94.0474 10.5257C94.3289 10.5907 94.4597 10.699 94.4597 10.9811V12.4375C94.4597 12.7416 94.3726 12.8937 94.0255 12.8937H93.9596C92.9602 12.8066 91.4615 12.7198 89.3764 12.7198C87.92 12.7198 86.5294 13.7404 86.5294 16.8257V19.9548C86.5294 23.0393 88.0289 24.0395 89.3105 24.0395C90.114 24.0395 90.7889 24.0168 91.4614 23.9745V18.4342C91.4614 18.1951 91.6362 17.9999 91.8745 17.9999H94.0254C94.2653 17.9999 94.4597 18.1951 94.4597 18.4342V25.7343C94.4597 26.0165 94.3289 26.1903 94.0474 26.2554Z" fill="black"/>
<path d="M94.0474 26.2554C92.9602 26.4725 91.5485 26.6261 89.3106 26.6261C86.9637 26.6261 83.4873 25.082 83.4873 19.9547V16.8256C83.4873 11.6772 86.7912 10.1338 89.3764 10.1338C91.4615 10.1338 93.3294 10.3948 94.0474 10.5257C94.3289 10.5907 94.4597 10.699 94.4597 10.9811V12.4375C94.4597 12.7416 94.3726 12.8937 94.0255 12.8937H93.9596C92.9602 12.8066 91.4615 12.7198 89.3764 12.7198C87.92 12.7198 86.5294 13.7404 86.5294 16.8257V19.9548C86.5294 23.0393 88.0289 24.0395 89.3105 24.0395C90.114 24.0395 90.7889 24.0168 91.4614 23.9745V18.4342C91.4614 18.1951 91.6362 17.9999 91.8745 17.9999H94.0254C94.2653 17.9999 94.4597 18.1951 94.4597 18.4342V25.7343C94.4597 26.0165 94.3289 26.1903 94.0474 26.2554Z" fill="black"/>
<path d="M137.907 11.5997H137.625V12.0438H137.907C138.057 12.0438 138.154 11.9749 138.154 11.8168C138.154 11.6701 138.042 11.5997 137.907 11.5997ZM138.15 12.8056L137.912 12.2753H137.628V12.8056H137.377V11.3659H137.907C138.181 11.3659 138.418 11.5239 138.418 11.8168C138.418 12.0051 138.335 12.155 138.157 12.2344L138.427 12.8056H138.15ZM137.846 10.9672C137.182 10.9672 136.74 11.4521 136.74 12.1103C136.74 12.7685 137.182 13.2497 137.846 13.2497C138.512 13.2497 138.951 12.7648 138.951 12.1073C138.951 11.4491 138.512 10.9672 137.846 10.9672ZM137.846 13.4903C137.069 13.4903 136.488 12.8813 136.488 12.1103C136.488 11.3394 137.069 10.7266 137.846 10.7266C138.626 10.7266 139.204 11.3356 139.204 12.1073C139.204 12.8775 138.626 13.4903 137.846 13.4903Z" fill="black"/>
</g>
<defs>
<clipPath id="clip0_613_146">
<rect width="140" height="36" fill="white"/>
</clipPath>
</defs>
</svg>
