<svg width="225" height="36" viewBox="0 0 225 36" fill="none" xmlns="http://www.w3.org/2000/svg">
<g clip-path="url(#clip0_251_2)">
<mask id="mask0_251_2" style="mask-type:luminance" maskUnits="userSpaceOnUse" x="0" y="0" width="225" height="36">
<path d="M0 0H224.189V36H0V0Z" fill="white"/>
</mask>
<g mask="url(#mask0_251_2)">
<path fill-rule="evenodd" clip-rule="evenodd" d="M195.907 25.248V15.748H190.676V26.258C190.676 29.814 194.357 32.7 198.899 32.7C203.442 32.7 207.122 29.814 207.122 26.258V15.748H201.93V25.248C201.93 26.828 200.58 28.112 198.92 28.112C197.259 28.112 195.91 26.829 195.91 25.248H195.907Z" fill="black"/>
<path d="M224.189 4.45605H218.92V32.1081H224.189V4.45605ZM215.285 4.45605H210.016V32.1081H215.285V4.45605Z" fill="black"/>
<path fill-rule="evenodd" clip-rule="evenodd" d="M113.629 10.258H110.765V32.108H105.16V5.72498H114.795C119.182 5.72498 122.735 9.21298 122.735 13.516C122.735 17.18 120.157 20.252 116.687 21.086L124.43 32.108H117.822L112.221 23.47V17.16H113.522C115.591 17.16 117.269 15.613 117.269 13.707C117.269 11.8 115.698 10.254 113.626 10.254L113.629 10.258Z" fill="black"/>
<path d="M140.987 25.0021C141.022 24.6421 141.039 24.2721 141.035 23.8951C141.115 18.1941 137.341 15.0631 132.532 15.0631C127.723 15.0631 123.824 19.0101 123.824 23.8781C123.824 28.7451 127.723 32.7001 132.532 32.7001C136.202 32.7001 139.067 31.0391 140.541 28.4371L136.265 26.4651C135.718 27.6421 134.445 28.4721 132.964 28.4681C130.913 28.4651 129.398 26.9601 129.38 25.1851V25.0051H140.984L140.987 25.0021ZM129.363 21.9721C129.378 21.1285 129.723 20.3246 130.325 19.7333C130.927 19.1421 131.737 18.8108 132.58 18.8108C133.424 18.8108 134.234 19.1421 134.836 19.7333C135.437 20.3246 135.783 21.1285 135.798 21.9721H129.359H129.363ZM161.958 32.1081L161.951 4.45605H156.7V17.5401C155.302 16.1561 153.441 15.3191 151.407 15.3191C147.055 15.3191 143.529 19.1761 143.529 23.9361C143.529 28.6961 147.055 32.5541 151.407 32.5541C153.462 32.5541 155.323 31.6791 156.724 30.2671V32.1071H161.958V32.1081ZM152.901 28.0681C150.767 28.0681 149.033 26.1711 149.033 23.8361C149.033 21.5011 150.763 19.6061 152.901 19.6061C155.039 19.6061 156.769 21.5011 156.769 23.8361C156.769 26.1711 155.039 28.0671 152.901 28.0671V28.0681ZM184.228 17.7471C185.671 16.4011 186.553 14.5991 186.553 12.6201C186.553 10.8281 185.861 9.17805 184.654 7.88405C183.398 6.50005 181.174 5.72505 178.167 5.72505H169.162V32.1081H180.793C185.249 32.0351 188.84 28.6691 188.84 24.5421C188.84 21.5391 187.781 19.3971 184.232 17.7471H184.228ZM179.818 27.5271H174.777V10.2571H178.292C179.835 10.2571 181.087 11.6691 181.087 13.2151C181.087 13.5822 181.015 13.9458 180.875 14.2851C180.734 14.6244 180.528 14.9327 180.269 15.1924C180.009 15.452 179.701 15.658 179.362 15.7985C179.022 15.9389 178.659 16.0112 178.292 16.0111H176.462V20.7541H179.818C181.689 20.7541 183.104 22.2621 183.104 24.1341C183.038 26.0671 181.852 27.4031 179.818 27.5271Z" fill="black"/>
<path d="M33.1809 7.63269C34.8247 5.39809 36.9761 3.58613 39.4576 2.34616C41.9392 1.10619 44.6799 0.473705 47.4538 0.500837C50.2278 0.52797 52.9556 1.21394 55.4124 2.50222C57.8692 3.7905 59.9847 5.64419 61.5845 7.91052" stroke="black"/>
<path d="M61.4743 28.2563C59.8387 30.5208 57.685 32.361 55.1931 33.6233C52.7011 34.8855 49.9433 35.5331 47.15 35.5119C44.3566 35.4908 41.6089 34.8015 39.1364 33.5016C36.6638 32.2018 34.5383 30.3291 32.9372 28.0401" stroke="black"/>
<path d="M68.3231 26.362C68.2671 26.292 68.1571 26.282 68.0941 26.282C68.0671 26.282 68.0421 26.282 68.0141 26.286C67.8211 26.31 67.6441 26.32 67.4611 26.32C67.3668 26.3196 67.2724 26.3173 67.1781 26.313C67.1011 26.313 67.0321 26.306 66.9631 26.306C66.8491 26.306 66.7561 26.313 66.6631 26.331H66.6411L66.6311 26.351C66.6171 26.379 66.2611 27.001 66.3091 27.396C66.3611 27.822 66.7931 27.908 67.1221 27.974C67.2401 27.998 67.3751 28.022 67.5131 28.022C67.7481 28.022 67.9041 27.942 67.9831 27.787C68.1811 27.279 68.2951 26.863 68.3501 26.479C68.3561 26.4577 68.3567 26.4352 68.352 26.4136C68.3473 26.392 68.3374 26.3719 68.3231 26.355V26.362ZM91.8261 27.766C91.6221 27.472 91.2661 27.236 90.9821 27.046C90.8689 26.9757 90.76 26.8985 90.6561 26.815L90.5981 26.773C90.5336 26.7175 90.4513 26.687 90.3661 26.687C90.0441 26.687 89.6951 27.074 89.6881 27.205C89.6781 27.399 89.9541 27.745 90.3141 28.175L90.3901 28.268C90.5731 28.485 90.7701 28.603 90.9781 28.617C91.1891 28.617 91.3551 28.547 91.5321 28.382C91.6631 28.261 91.9541 27.956 91.8221 27.769L91.8261 27.766ZM93.3321 30.271C93.2818 30.1736 93.2403 30.0718 93.2081 29.967C93.1776 29.8206 93.1542 29.6727 93.1381 29.524C93.1081 29.288 93.0801 29.064 93.0071 28.891C92.9554 28.7839 92.875 28.6933 92.7749 28.6291C92.6749 28.5648 92.559 28.5295 92.4401 28.527C92.3581 28.526 92.277 28.5453 92.2041 28.583C91.8521 28.759 91.6401 28.95 91.6991 29.347C91.8931 29.925 91.9891 30.344 92.1181 30.914C92.1321 31.001 92.1911 31.288 92.3281 31.288C92.3391 31.288 92.3501 31.288 92.3601 31.285L93.3741 30.953C93.3977 30.9459 93.4194 30.9339 93.4379 30.9177C93.4564 30.9014 93.4711 30.8814 93.4811 30.859C93.5401 30.724 93.4331 30.496 93.3291 30.274L93.3321 30.271Z" fill="black"/>
<path d="M91.5399 31.08C91.4597 30.4571 91.2868 29.8497 91.0269 29.278L91.0139 29.251H90.9829C90.3939 29.288 90.0309 28.811 89.6779 28.354C89.5609 28.202 89.4529 28.06 89.3359 27.936C89.1611 27.7405 88.9727 27.5577 88.7719 27.389C88.5639 27.209 88.3879 27.05 88.3189 26.909C88.2359 26.735 88.1459 26.403 88.0589 26.081C87.9969 25.853 87.9389 25.635 87.8829 25.486C87.8729 25.456 87.8589 25.424 87.8479 25.393C87.7409 25.109 87.6129 24.756 87.2459 24.698C87.0629 24.667 86.8619 24.66 86.6719 24.653C86.1419 24.632 85.6099 24.539 85.3369 24.158C85.0839 23.808 85.1869 23.483 85.3299 23.138C85.3919 22.985 85.4369 22.858 85.4719 22.712C85.6619 22.072 85.7279 21.276 85.5819 20.719C85.5579 20.6292 85.5302 20.5405 85.4989 20.453C85.4229 20.221 85.3329 19.868 85.3889 19.761C85.4469 19.654 85.5059 19.636 85.6129 19.636C85.7069 19.636 85.8139 19.668 85.9139 19.696C85.9869 19.716 86.0419 19.726 86.1119 19.744C86.3739 19.806 86.7689 19.878 87.1289 19.878C87.7239 19.878 88.3489 19.75 88.8889 19.518C89.9099 19.024 90.9169 17.907 90.8649 16.523C90.7299 15.122 89.8649 13.769 88.2149 12.382C88.1769 12.347 88.1319 12.312 88.0899 12.278C87.8759 12.101 87.6159 11.877 87.6099 11.679C87.6029 11.482 88.1179 11.361 88.4399 11.285C88.5159 11.268 88.5819 11.254 88.6399 11.237L88.7229 11.216C89.1349 11.109 89.5569 10.998 89.9069 10.756C91.0829 9.96301 91.0409 8.56901 90.9069 7.80101C90.8999 7.78101 90.8959 7.75601 90.8889 7.72901C90.8689 7.62901 90.8409 7.50401 90.7469 7.50401C90.7199 7.50401 90.6879 7.51801 90.6569 7.54501C90.6229 7.57601 90.5879 7.61101 90.5499 7.64501C90.4149 7.77401 90.2659 7.91901 90.0929 8.01501C89.7199 8.23701 89.2699 8.33101 88.8379 8.42101C88.5609 8.47901 88.2739 8.53801 88.0079 8.63101C86.8379 9.03601 86.1119 9.62801 85.8519 10.392C85.7169 10.79 85.7899 11.292 86.0489 11.776C86.4329 12.382 86.9829 12.911 87.5189 13.423C88.3639 14.233 89.2349 15.066 89.4359 16.201C89.5459 16.861 89.2769 17.419 88.6159 17.9C88.2699 18.107 87.8269 18.218 87.3359 18.218C86.7134 18.2134 86.1012 18.059 85.5509 17.768C84.8659 17.426 84.2049 16.983 83.5649 16.554C82.6029 15.911 81.6069 15.246 80.5039 14.894C80.0259 14.675 79.4939 14.568 78.9809 14.464C78.2509 14.316 77.4969 14.164 76.8909 13.689C76.6828 13.552 76.4787 13.4089 76.2789 13.26C75.7289 12.863 75.1619 12.45 74.5189 12.288C74.2789 12.205 74.0449 12.174 73.8159 12.14C73.4629 12.088 73.1349 12.043 72.8299 11.825L72.4149 11.524C71.9029 11.15 71.3739 10.763 70.8449 10.496C69.9349 10.043 68.9659 9.80801 67.8829 9.57301C67.5369 9.49001 67.3229 9.23001 67.0939 8.95301C66.9419 8.76701 66.7829 8.57601 66.5819 8.44101C65.7489 7.78101 64.9909 7.33801 64.0149 7.33801C63.9249 7.33801 63.8319 7.34101 63.7419 7.34801C63.2299 7.38301 62.7319 7.77001 62.3999 8.06101C61.4279 8.91101 60.3799 9.66901 59.3699 10.403C57.8599 11.493 56.3039 12.62 54.9719 14.077C53.6609 15.43 53.1869 17.117 52.7229 18.754C52.6539 18.996 52.5889 19.235 52.5159 19.477C52.3909 19.924 52.2769 20.384 52.1659 20.827C51.5649 23.237 50.9459 25.646 48.5369 27.209C48.3779 27.313 48.4339 27.514 48.5819 27.569C48.6449 27.593 49.6549 27.932 50.6619 26.922C51.2699 26.168 51.6089 25.472 52.3359 24.694C52.3599 24.67 52.4429 24.604 52.5119 24.611C52.5609 24.635 52.5749 24.66 52.5609 24.746C52.4669 25.058 52.2769 25.331 52.0909 25.597C51.9009 25.87 51.7059 26.151 51.6089 26.472C51.3779 27.164 50.7339 27.725 50.1629 28.216C50.1629 28.216 50.0729 28.275 50.0219 28.341C49.9699 28.406 49.9699 28.434 49.9699 28.434C49.9519 28.586 50.0729 28.68 50.3189 28.69C51.6689 28.69 52.6299 27.732 53.5569 26.801C53.5772 26.7807 53.6017 26.7649 53.6286 26.7548C53.6555 26.7446 53.6842 26.7402 53.7129 26.742C53.7609 26.742 53.8099 26.746 53.8619 26.766C53.9239 26.801 54.0659 26.94 54.1759 27.036C54.4809 27.306 54.7919 27.586 55.1999 27.669H55.2139C55.7059 27.6 56.1479 27.545 56.6049 27.545C56.7369 27.545 56.8609 27.548 56.9719 27.559C57.4629 27.707 57.9579 27.894 58.4319 28.071C58.7669 28.199 59.1129 28.327 59.4619 28.444H59.4769C59.9269 28.427 60.2469 28.009 60.4829 27.638C60.5929 27.375 60.5419 27.119 60.4899 26.87C60.4589 26.715 60.4279 26.57 60.4379 26.427C60.5209 26.386 60.6349 26.393 60.7569 26.41C60.8639 26.427 61.0189 26.41 61.0709 26.403C61.1889 26.386 61.3129 26.251 61.2789 26.075C61.1889 25.625 60.9639 25.348 60.7389 25.002C60.5419 24.708 60.3549 24.432 60.2619 24.12C60.1129 23.708 59.7979 23.366 59.4939 23.034C59.1409 22.65 58.8089 22.286 58.7079 21.826C58.7079 21.826 58.6779 21.729 58.7119 21.691C58.7459 21.653 58.8399 21.698 58.8399 21.698C59.0019 21.816 59.1649 21.948 59.3199 22.075C59.8329 22.491 60.3619 22.923 61.0059 23.02C61.6039 23.079 62.2609 23.155 62.9009 23.1C63.0709 23.072 63.1569 22.923 63.1159 22.781C62.8599 22.241 62.5969 21.661 62.4379 21.027C62.3029 20.55 62.0019 19.294 62.3099 18.346C62.3409 18.253 62.4029 18.221 62.4589 18.221C62.4649 18.221 62.4719 18.221 62.4829 18.225C62.5869 18.249 62.6559 18.374 62.6699 18.47L62.6799 18.595C62.7699 19.885 62.8559 21.103 63.6449 22.141C63.8559 22.477 64.1569 22.653 64.4479 22.826C64.6479 22.944 64.8799 23.051 65.0259 23.238C65.1919 23.448 65.2189 23.808 65.1059 24.026L64.1359 25.456C63.9079 25.781 63.6859 26.13 63.6069 26.486C63.5349 26.846 63.5659 27.196 63.5969 27.535L63.6039 27.617C63.573 27.5976 63.5478 27.5703 63.5309 27.538C63.1409 26.832 63.0609 26.234 63.2609 25.774C63.3889 25.476 64.1779 24.359 64.4059 23.992C64.4789 23.874 64.5379 23.757 64.4759 23.677C64.3989 23.577 63.8079 23.324 63.6519 23.324C63.6419 23.324 63.6319 23.324 63.6209 23.328C63.4829 23.366 63.3929 23.494 63.3129 23.608C63.2949 23.6336 63.2766 23.6589 63.2579 23.684L62.0639 25.85L62.0359 25.93C61.9669 26.147 61.9059 26.334 61.9669 26.583C62.0329 26.908 62.1329 27.258 62.2089 27.513L62.2719 27.725C62.3789 28.102 62.4789 28.455 62.6449 28.652C62.7489 28.776 62.8809 28.832 63.0569 28.832C63.1469 28.832 63.2399 28.818 63.3299 28.804C63.4799 28.78 63.6419 28.763 63.7629 28.794C63.9429 28.839 64.0669 28.974 64.1989 29.112C64.3299 29.254 64.4649 29.399 64.6659 29.458C65.0359 29.583 65.4229 29.683 65.7969 29.78C66.2949 29.911 66.8109 30.046 67.3019 30.236C67.5789 30.326 67.8759 30.409 68.1629 30.409C68.4819 30.409 68.6789 30.319 68.9559 30.095C69.3429 29.78 69.4709 29.468 69.5679 29.019C69.6439 28.607 69.7819 28.579 70.0799 28.562C70.2249 28.555 70.2459 28.562 70.3879 28.514C70.5369 28.465 70.9689 27.936 71.1939 27.504C71.2559 27.386 71.3219 27.278 71.3839 27.185C71.4435 27.1064 71.4765 27.0107 71.4779 26.912C71.4779 26.697 71.2979 26.632 71.1839 26.628H71.1069C71.1069 26.628 69.8339 26.618 69.4849 26.628C68.9629 26.656 68.7349 27.158 68.5509 27.604C68.4779 27.777 68.4119 27.936 68.3259 28.078C68.1879 28.327 67.9179 28.479 67.5859 28.472C67.4889 28.472 67.2739 28.413 67.1639 28.386C66.4749 28.216 65.7659 28.043 65.4749 27.358C65.4479 27.241 65.4029 26.998 65.5749 26.794C65.9419 26.369 66.4269 25.829 66.9249 25.442C67.6169 25.296 68.3089 24.784 68.6889 24.141C68.7689 24.03 68.8099 23.899 68.8519 23.774C68.9139 23.58 68.9719 23.397 69.1489 23.283C69.2599 23.227 69.3499 23.245 69.3739 23.342C69.4399 23.702 69.3049 24.047 69.1699 24.382C69.1397 24.4568 69.1111 24.5321 69.0839 24.608L69.0629 24.663L69.1219 24.67C69.3119 24.687 69.5089 24.698 69.7059 24.698C70.4159 24.698 71.0899 24.577 71.7439 24.459C72.3909 24.341 73.0619 24.22 73.7539 24.22C73.8269 24.22 73.9029 24.22 73.9789 24.224C74.2869 24.224 74.5839 24.251 74.8749 24.276C75.1589 24.3 75.4529 24.328 75.7469 24.328C75.8499 24.328 75.9469 24.328 76.0439 24.318C76.9299 24.276 77.5739 23.874 77.7669 23.238C77.9499 22.695 77.9299 21.758 77.7079 20.449C77.6979 20.387 77.6909 20.346 77.6909 20.339V20.315C77.6909 20.266 77.6909 20.215 77.7569 20.183C77.8399 20.138 77.9269 20.183 77.9669 20.29C78.3029 21.231 78.4969 22.314 78.6009 23.058C78.7149 23.781 79.0159 24.514 79.5279 25.296C80.1609 26.241 81.2059 26.784 82.3919 26.784C82.6689 26.784 82.9459 26.732 83.2189 26.697C83.4089 26.673 83.4819 26.683 83.6099 26.683C85.1189 26.683 86.4299 27.337 87.4089 28.573C87.4089 28.573 87.4259 28.597 87.4259 28.631C87.4259 28.683 87.3499 28.735 87.2839 28.707L87.1559 28.607C86.3059 27.947 85.4259 27.265 84.3229 27.13C84.1172 27.0945 83.9087 27.0771 83.6999 27.078C83.3819 27.078 83.0669 27.113 82.7659 27.147C82.4619 27.182 82.1779 27.217 81.8839 27.217C81.5419 27.2244 81.2019 27.1632 80.8839 27.037C79.6139 26.617 78.5769 25.157 78.2439 24.251C78.2318 24.2256 78.2128 24.2041 78.1892 24.1889C78.1655 24.1737 78.138 24.1654 78.1099 24.165C78.0749 24.165 78.0399 24.175 78.0019 24.2C77.8539 24.293 77.8289 24.341 77.8089 24.431C77.7879 24.507 77.9119 25.158 77.9679 25.438C78.1339 26.13 78.3829 27.175 79.2889 27.562C79.3999 27.628 79.5139 27.701 79.6249 27.773C80.0779 28.063 80.5449 28.365 81.0809 28.365C81.2089 28.365 81.3369 28.348 81.4609 28.313C81.7839 28.243 82.1119 28.206 82.4439 28.206C83.4889 28.206 84.5509 28.562 85.4439 29.212C85.5919 29.299 85.7339 29.416 85.8689 29.531C86.0629 29.693 86.2599 29.859 86.4959 29.946C86.6439 30.005 86.8029 30.036 86.9729 30.036C87.3779 30.036 87.4809 29.915 87.7689 29.773C87.8746 29.7211 87.9902 29.6928 88.1079 29.69C88.4329 29.69 88.6129 29.942 88.8409 30.264C88.9789 30.458 89.1349 30.676 89.3459 30.866C89.6399 31.153 90.0479 31.188 90.3699 31.188C90.5469 31.188 90.7229 31.174 90.8959 31.164C91.0619 31.154 91.2629 31.146 91.3699 31.136C91.4739 31.122 91.5329 31.108 91.5329 31.108V31.067L91.5399 31.08ZM57.1649 26.255C57.1069 26.362 56.9649 26.424 56.7779 26.424C56.6227 26.4261 56.4702 26.3842 56.3379 26.303C56.0959 26.13 55.9549 25.843 55.9339 25.466C55.9299 25.379 55.9239 25.289 56.0409 25.203C56.0999 25.168 56.1349 25.168 56.2039 25.168C56.4349 25.168 56.8059 25.317 57.0029 25.556C57.0169 25.573 57.3249 25.981 57.1659 26.258L57.1649 26.255ZM57.4979 20.93C57.4109 21.041 57.2799 21.124 57.1519 21.062C57.0309 21.02 56.9229 20.864 56.8579 20.747C56.7749 20.598 56.7049 20.47 56.5079 20.484H56.4769C56.3039 20.498 56.1729 20.584 56.0339 20.691C55.9649 20.747 55.6839 20.955 55.6159 21.013C55.2389 21.332 54.8579 21.66 54.7679 22.106C54.7488 22.1856 54.7315 22.2656 54.7159 22.346C54.6879 22.501 54.6609 22.663 54.5289 22.746H54.5189C54.5009 22.756 54.4805 22.7608 54.4599 22.76C54.4003 22.7577 54.343 22.7359 54.2969 22.698C54.2731 22.6803 54.2536 22.6574 54.2399 22.6311C54.2262 22.6048 54.2187 22.5757 54.2179 22.546C54.1519 21.778 54.4119 21.086 54.9509 20.595C55.3009 20.308 55.5809 19.948 55.8539 19.598C55.9859 19.428 56.1239 19.252 56.2659 19.09C56.3729 18.983 56.5499 19.073 56.8399 19.39C56.9609 19.522 57.3419 20.17 57.5149 20.595C57.5809 20.782 57.4949 20.923 57.4949 20.923L57.4979 20.93ZM63.8529 12.001C63.7079 12.14 63.5549 12.278 63.4029 12.42C62.8629 12.911 62.3059 13.42 61.9399 13.994C61.7669 14.229 61.6389 14.499 61.5139 14.762C61.4999 14.79 61.4689 14.848 61.4099 14.848C61.3947 14.8473 61.3798 14.8435 61.3661 14.837C61.3524 14.8305 61.3401 14.8213 61.3299 14.81C61.2269 14.706 61.3129 13.983 61.4479 13.62C61.7459 12.818 62.4199 11.977 63.3029 11.316C63.4008 11.2562 63.5131 11.224 63.6279 11.223C63.7939 11.223 63.9219 11.299 63.9739 11.43C64.0839 11.607 64.0439 11.814 63.8529 12.001ZM27.8029 27.206C27.7719 27.154 27.7432 27.1006 27.7169 27.046C27.6269 26.877 27.5789 26.697 27.5339 26.541C27.4439 26.227 27.3679 25.953 27.0249 26.001C26.5409 26.071 26.0699 26.102 25.5449 26.102C25.5369 26.102 25.3749 26.102 25.3229 26.216C25.2639 26.348 25.3959 26.472 25.5379 26.6C25.6169 26.673 25.6999 26.749 25.7549 26.832C25.8519 26.974 25.9449 27.178 26.0349 27.375C26.1769 27.69 26.3019 27.96 26.4439 28.005C26.509 28.0234 26.5763 28.0324 26.6439 28.032C26.9739 28.032 27.4259 27.856 27.7549 27.6C27.9379 27.444 27.8799 27.34 27.7969 27.202L27.8029 27.206ZM4.1439 26.715L4.1169 26.694C4.0169 26.614 3.8369 26.624 3.7149 26.708C3.6319 26.766 3.5449 26.822 3.4629 26.878C3.1929 27.057 2.9129 27.24 2.6189 27.489C2.5109 27.579 2.4519 27.749 2.4419 27.88C2.4319 27.984 2.4519 28.067 2.4939 28.12C2.5179 28.147 2.7329 28.385 2.7779 28.424C2.8469 28.482 2.9609 28.558 3.1199 28.558C3.22117 28.5556 3.32048 28.5296 3.4099 28.482C3.9329 28.22 4.4729 27.251 4.4939 27.195C4.5489 27.04 4.3729 26.898 4.1439 26.715ZM2.4209 29.012C2.3139 28.86 1.9579 28.441 1.7569 28.441C1.7399 28.441 1.7219 28.441 1.7089 28.451C1.4319 28.565 1.1099 28.925 1.0929 29.14C1.0229 30.077 0.995903 30.177 0.739903 30.465C0.666903 30.545 0.618903 30.731 0.701903 30.811C0.773903 30.883 1.6949 31.174 1.7979 31.174H1.8189C1.9019 31.146 1.9709 30.935 2.1589 30.288C2.2589 29.938 2.3729 29.544 2.5009 29.188C2.5079 29.164 2.5109 29.129 2.4279 29.012H2.4209Z" fill="black"/>
<path d="M30.6427 28.95C31.0197 28.922 31.4107 28.894 31.6877 28.6C32.0377 28.091 32.3377 27.58 32.6017 27.04C32.8367 26.555 32.8397 26.081 32.6087 25.711C31.9127 24.597 31.7887 24.303 31.5047 23.546L31.4977 23.525L31.4777 23.518C31.3954 23.4927 31.3143 23.4637 31.2347 23.431C31.0647 23.366 30.8847 23.293 30.6817 23.293H30.6537C30.4147 23.3 30.2527 23.376 30.1867 23.508L30.1767 23.528L31.4387 26.019C31.5187 26.213 31.6117 26.41 31.5637 26.701C31.5147 26.991 30.8957 27.967 30.7087 28.091C30.6771 28.1163 30.6389 28.1319 30.5987 28.136C30.5847 28.136 30.5187 28.123 30.5597 27.977C30.6777 27.573 30.8267 26.621 30.7847 26.317C30.7397 25.964 29.6817 24.213 29.6367 24.137L29.6157 24.107C29.4527 23.84 29.2837 23.563 29.2977 23.241C29.2977 23.092 29.4357 22.989 29.5357 22.951C29.7197 22.881 29.8957 22.854 30.0827 22.812C30.5327 22.712 30.9957 22.612 31.1627 22.359C31.6677 21.591 31.9677 20.789 32.1687 19.678C32.1787 19.629 32.2137 19.536 32.2827 19.536C32.3247 19.536 32.3657 19.55 32.3827 19.646C32.4743 20.1713 32.4604 20.7096 32.3417 21.2295C32.2231 21.7494 32.0021 22.2404 31.6917 22.674C31.6481 22.7467 31.6322 22.8326 31.6467 22.916C31.6607 23.006 31.7607 23.079 31.7607 23.079C32.0027 23.245 32.8887 23.148 33.5317 22.812C34.0227 22.822 34.4837 22.736 34.9327 22.653C35.0747 22.625 35.2167 22.601 35.3547 22.577C35.3997 22.601 35.4347 22.643 35.4417 22.674C35.0647 23.099 34.8357 23.577 34.7187 24.175C34.6114 24.2835 34.5007 24.3886 34.3867 24.49C33.9747 24.867 33.5317 25.29 33.5107 25.829C33.5107 25.829 33.4977 26.023 33.7087 26.036C33.7737 26.04 33.8497 26.006 33.9187 25.978C33.9867 25.9435 34.0615 25.9244 34.1377 25.922C34.1699 25.9266 34.1995 25.9423 34.2214 25.9664C34.2433 25.9905 34.2562 26.0215 34.2577 26.054L33.7877 26.742C33.6117 27.029 33.6877 27.334 33.7567 27.632C33.8087 27.794 33.7847 27.922 33.8297 28.067C33.9467 28.41 34.3657 28.572 34.6977 28.572C35.3097 28.545 35.8677 28.344 36.4067 28.15C36.5037 28.116 36.5967 28.081 36.6967 28.047C37.2887 27.791 38.0777 27.739 39.0157 27.891C39.7697 27.842 40.3367 27.344 40.8867 26.86C41.1217 26.867 41.3647 27.005 41.6137 27.275C42.4297 28.15 43.4297 28.575 44.6717 28.575H44.8137L44.9377 28.565C45.0657 28.535 45.1007 28.472 45.1077 28.392C45.1177 28.296 45.0417 28.199 44.9037 28.133L44.2077 27.763C43.6507 27.41 43.0457 26.984 42.8797 26.423C42.6997 25.825 42.3637 25.217 42.1117 24.812C42.0601 24.7295 42.0058 24.6488 41.9487 24.57C41.8517 24.428 41.7487 24.282 41.6787 24.13C42.4367 24.4 42.8617 24.96 43.3747 25.895C43.7547 26.59 44.7447 27.337 45.6817 27.337C45.8067 27.337 45.9237 27.323 46.0417 27.299C46.1417 27.279 46.2077 27.213 46.2217 27.126C46.2317 27.05 46.2217 26.977 46.1387 26.932L45.5707 26.649C44.8967 26.254 44.5087 25.604 44.1317 24.971C43.9827 24.721 43.8317 24.466 43.6647 24.234C43.5577 24.074 43.3707 23.909 43.2087 23.764C43.0667 23.636 42.9317 23.514 42.9067 23.449C42.2917 21.767 41.6207 19.792 41.4577 17.595C41.4337 17.26 41.1977 16.523 40.9177 16.045C40.0427 14.62 37.9527 12.181 37.8387 12.06C37.7668 11.9843 37.6931 11.9103 37.6177 11.838L37.5617 11.783L33.7977 8.65601C33.0507 8.13001 32.8227 8.03601 32.2797 7.84301C31.899 7.71284 31.499 7.64859 31.0967 7.65301C30.5637 7.65301 30.0307 7.75601 29.5947 7.94301C29.2947 8.10301 29.0037 8.28901 28.7197 8.46901C28.2397 8.77701 27.7397 9.09501 27.2007 9.27501C26.7787 9.46501 26.3257 9.60401 25.8867 9.73901C25.0317 10.001 24.1497 10.275 23.4507 10.919C23.2467 11.105 23.0807 11.261 22.9417 11.396C22.2957 12.005 22.2297 12.07 21.7007 12.07C20.4757 12.07 19.6077 12.371 18.7007 13.108C17.9847 13.758 17.2757 14.368 16.4487 14.655C16.0787 14.783 15.6667 14.831 15.2307 14.873C14.6047 14.928 14.5077 14.935 13.9167 15.077C13.0237 15.281 12.0767 16.017 11.2767 16.64C11.0137 16.844 10.6647 17.114 10.4987 17.222C10.4117 17.277 10.3087 17.342 10.2247 17.392C9.22868 17.972 8.29068 18.522 7.08668 18.522H6.99668C6.09768 18.457 5.28168 17.837 5.00768 17.017C4.75568 16.094 5.02568 15.146 5.75468 14.419C6.10068 14.073 6.49468 13.738 6.87968 13.413C7.49568 12.89 8.07668 12.395 8.48168 11.853C8.95168 11.223 8.89968 10.161 8.37068 9.58301C7.84468 9.00501 6.66868 8.71801 6.22568 8.61101L6.14968 8.59301C6.10468 8.58301 6.02868 8.57301 5.98668 8.56301C5.70668 8.50701 5.43668 8.46901 5.16368 8.40301C4.46468 8.21301 3.92168 7.67001 3.30268 7.33801C3.06368 7.70401 2.98368 8.10201 3.01568 8.54501C3.13268 9.47901 3.91168 10.448 4.77568 10.842C4.81368 10.856 4.84868 10.873 4.88668 10.884C5.15968 11.001 5.44668 11.019 5.71668 11.019H6.06668C6.23268 11.019 6.43368 11.019 6.61268 11.064C6.70782 11.0913 6.79292 11.1458 6.85757 11.2208C6.92222 11.2957 6.96361 11.3879 6.97668 11.486C6.99068 11.61 6.93468 11.707 6.77668 11.828L6.33668 12.191C5.59268 12.804 4.82468 13.441 4.20168 14.211C3.36468 15.115 3.32668 16.685 3.71768 17.702C4.21568 19.042 5.59268 19.792 6.73768 19.937C6.94168 19.968 7.14568 19.986 7.36068 19.986C8.03468 19.986 8.67468 19.823 9.29768 19.667C9.32168 19.66 9.33968 19.66 9.35668 19.66C9.38468 19.66 9.43968 19.66 9.44968 19.802C9.46768 20.079 9.48468 20.394 9.49868 20.698C9.51868 21.193 9.54368 21.66 9.57868 21.858C9.66068 22.297 9.87868 22.833 10.0247 23.186C10.0867 23.335 10.1347 23.452 10.1487 23.511C10.2047 23.711 10.1527 23.93 10.0177 24.054C9.54768 24.487 8.58768 24.829 8.41168 24.854C8.12868 24.888 7.82768 24.905 7.60568 24.916C7.49568 24.922 7.40568 24.926 7.36068 24.933C7.26143 24.9431 7.16863 24.9869 7.09768 25.057C6.96268 25.189 6.81768 25.566 6.64468 26.002C6.54068 26.265 6.43668 26.538 6.32968 26.763C6.02868 27.261 5.52668 27.555 5.03968 27.835C4.91768 27.905 4.79668 27.977 4.67968 28.05L4.66568 28.064C4.46568 28.382 4.26368 28.683 4.00468 28.911C3.80468 29.098 3.54768 29.14 3.29868 29.171H3.28168L3.27168 29.185C2.89068 29.621 2.76968 30.198 2.64868 30.762C2.63168 30.849 2.61068 30.935 2.59268 31.018L2.57568 31.098H2.62468C2.82468 31.122 3.02468 31.164 3.23668 31.212C3.51668 31.274 3.80368 31.337 4.08768 31.337C4.35768 31.337 4.58568 31.281 4.79368 31.167C5.15668 31.001 5.35068 30.665 5.54068 30.344C5.66568 30.133 5.79368 29.911 5.96668 29.742C6.01461 29.6871 6.07428 29.6437 6.14127 29.6149C6.20826 29.5862 6.28086 29.5729 6.35368 29.576C6.49568 29.576 6.65168 29.617 6.79968 29.659C6.93868 29.697 7.07968 29.735 7.21468 29.742C7.88668 29.78 8.52268 29.358 8.83068 29.112C8.96568 29.005 9.10068 28.877 9.23168 28.756C9.43568 28.566 9.64368 28.368 9.86868 28.23C10.1417 28.098 10.4707 28.036 10.8787 28.036C11.3837 28.036 11.9197 28.136 12.3457 28.216C12.5727 28.275 12.8062 28.3052 13.0407 28.306C13.4235 28.3121 13.8014 28.2191 14.1377 28.036C14.5117 27.826 14.8877 27.628 15.1897 27.469C15.3657 27.375 15.5217 27.296 15.6427 27.227C16.1787 26.933 16.6357 26.116 16.8047 25.777C16.9647 25.462 17.2347 24.781 17.2377 24.774L17.2517 24.743L16.6247 24.265L16.6007 24.307C16.6007 24.307 16.1857 24.988 15.9197 25.303C14.8157 26.805 13.0197 26.998 11.5777 26.998C11.4777 26.995 11.3777 26.991 11.2797 26.991C9.49468 26.991 8.05568 27.59 7.00368 28.773C6.95568 28.828 6.86868 28.839 6.83368 28.79C6.81368 28.763 6.80668 28.718 6.82068 28.662C6.84105 28.5565 6.88108 28.4557 6.93868 28.365C8.05568 26.777 9.96568 26.542 11.5047 26.514C12.6427 26.438 13.4697 26.241 14.1897 25.874C15.1137 25.404 15.7947 24.366 16.0647 23.542C16.2407 23.002 16.3277 22.425 16.4107 21.868C16.4767 21.425 16.5457 20.968 16.6557 20.546C16.6657 20.5198 16.6833 20.4972 16.7063 20.4812C16.7293 20.4651 16.7566 20.4564 16.7847 20.456C16.7977 20.456 16.8087 20.456 16.8287 20.466C16.8887 20.477 16.9987 20.518 16.9987 20.605C16.8427 21.477 16.6317 22.674 17.0297 23.67C17.2167 24.064 17.6107 24.258 18.2407 24.258C18.6207 24.258 19.0367 24.192 19.4407 24.13C19.7527 24.082 20.0467 24.033 20.2987 24.023C20.4067 24.013 20.5137 24.009 20.6247 24.009C21.1257 24.009 21.6107 24.106 22.0777 24.199C22.4857 24.282 22.9077 24.365 23.3397 24.386C23.4157 24.39 23.4997 24.396 23.5857 24.404C23.7347 24.417 23.8897 24.428 24.0497 24.428C24.4157 24.428 24.6757 24.355 24.8627 24.203C24.9937 24.096 24.9487 23.933 24.8897 23.729L24.8797 23.691C24.8697 23.656 24.8597 23.618 24.8447 23.577C24.7617 23.307 24.6347 22.899 24.8447 22.708C24.879 22.6832 24.9203 22.6699 24.9627 22.67C24.9967 22.67 25.0457 22.68 25.0597 22.736L25.1287 22.971C25.2217 23.297 25.3187 23.636 25.5267 23.926C25.9667 24.486 26.6437 25.019 27.4877 25.459C28.0317 25.832 28.6847 26.462 28.7377 27.341C28.7377 27.739 28.3497 28.015 28.0627 28.188C27.6087 28.413 26.8337 28.666 26.4677 28.666C26.4191 28.669 26.3706 28.6608 26.3257 28.642C25.7997 28.362 25.5297 27.908 25.2427 27.427C25.0939 27.1624 24.924 26.9103 24.7347 26.673C24.4607 26.369 24.1147 26.251 23.6477 26.289C23.1977 26.324 22.7827 26.41 22.2917 26.514C22.244 26.5227 22.199 26.5426 22.1605 26.5722C22.1221 26.6018 22.0913 26.6401 22.0707 26.684C22.0489 26.7364 22.04 26.7932 22.0447 26.8498C22.0494 26.9063 22.0675 26.9609 22.0977 27.009C22.3537 27.465 22.5997 27.88 22.8627 28.319L22.9807 28.517C23.0427 28.624 23.1777 28.638 23.2877 28.638C23.3477 28.638 23.4127 28.635 23.4817 28.628C23.5547 28.624 23.6307 28.618 23.7067 28.618C23.9347 28.618 24.0807 28.673 24.1737 28.787C24.2537 28.907 24.3227 29.036 24.3917 29.16C24.5647 29.468 24.7417 29.79 25.0387 30.018C25.3087 30.258 25.6987 30.392 26.1077 30.392C26.2877 30.392 26.4607 30.364 26.6267 30.316C27.8067 29.946 28.9547 29.566 30.0477 28.981C30.0477 28.981 30.4807 28.974 30.6467 28.96L30.6427 28.95ZM32.6047 15.72C32.5847 15.793 32.5387 15.841 32.4867 15.841C32.4667 15.841 32.4107 15.831 32.3937 15.737C32.1967 14.731 32.0787 14.236 31.8467 13.772C31.7747 13.624 31.6807 13.499 31.6017 13.388C31.4317 13.157 31.2867 12.959 31.4497 12.69C31.4977 12.61 31.6187 12.558 31.7497 12.558C31.8157 12.558 31.8747 12.572 31.9267 12.596C32.1207 12.69 32.3107 12.925 32.5047 13.316C32.9887 14.309 32.6047 15.71 32.6007 15.724L32.6047 15.72ZM38.9327 25.746C38.9327 25.746 38.9007 26.03 38.7697 26.154C38.6347 26.275 38.1577 26.341 37.9047 26.334C37.6527 26.324 37.5657 26.289 37.5147 26.213C37.4547 26.126 37.5517 25.957 37.5517 25.957C37.5827 25.895 37.8767 25.282 38.4717 25.12C38.4717 25.12 38.6617 25.05 38.8457 25.14C39.0287 25.23 38.9427 25.687 38.9357 25.75L38.9327 25.746ZM40.6547 21.788C40.6376 21.928 40.5956 22.0638 40.5307 22.189C40.4997 22.245 40.4477 22.366 40.2747 22.369C40.0847 22.369 40.0977 22.148 40.0977 22.117C40.0977 22.117 40.0737 21.497 39.9557 21.238C39.8277 20.954 39.2057 20.155 38.8457 20.19C38.7557 20.197 38.5207 20.339 38.3477 20.563C38.1367 20.837 38.1367 20.871 38.0707 20.913C38.0047 20.954 37.9217 20.933 37.8947 20.771C37.8667 20.608 37.8347 20.477 37.9117 20.169C37.9877 19.861 38.0637 19.792 38.1537 19.571C38.1537 19.571 38.3407 19.138 38.4097 19.031C38.6037 18.737 38.8597 18.758 38.8597 18.758C38.9287 18.761 39.1497 18.733 39.3897 19.031C39.6657 19.377 39.6067 19.346 39.6827 19.467C39.7587 19.587 39.8427 19.716 40.0707 19.965C40.2987 20.215 40.5507 20.698 40.6207 20.999C40.6897 21.3 40.6867 21.556 40.6477 21.789L40.6547 21.788Z" fill="black"/>
</g>
</g>
<defs>
<clipPath id="clip0_251_2">
<rect width="225" height="36" fill="white"/>
</clipPath>
</defs>
</svg>
