<svg width="409" height="66" viewBox="0 0 409 66" fill="none" xmlns="http://www.w3.org/2000/svg">
<path d="M27.21 0L0 53.41H12.64L39.86 0H27.21Z" fill="black"/>
<path d="M183.81 21.38L181.63 25.6501H181.5C180.599 23.9453 179.205 22.5514 177.5 21.6501C175.777 20.8582 173.896 20.4716 172 20.5201C169.955 20.4772 167.929 20.9228 166.09 21.8201C164.411 22.6521 162.939 23.8477 161.78 25.3201C160.592 26.8334 159.7 28.5568 159.15 30.4001C158.545 32.3423 158.242 34.3659 158.25 36.4001C158.236 38.4902 158.488 40.5735 159 42.6C159.467 44.4592 160.3 46.2068 161.45 47.7401C162.578 49.219 164.042 50.4083 165.72 51.2101C167.663 52.1011 169.783 52.5356 171.92 52.4801C173.833 52.4893 175.725 52.0762 177.46 51.2701C179.187 50.4983 180.614 49.1809 181.52 47.5201H181.64V51.7401C181.64 56.7401 179.3 59.6 174.64 59.6C169.98 59.6 167.5 57.6 166.18 55.96L163 62.25C163 62.25 166.6 65.49 173.41 65.49C184.7 65.49 190 60.0001 190 51.3601V21.3601L183.81 21.38ZM181.17 40.3101C180.875 41.3261 180.401 42.2811 179.77 43.1301C179.145 43.9633 178.342 44.6465 177.42 45.1301C176.403 45.6396 175.277 45.8936 174.14 45.8701C172.943 45.915 171.759 45.6128 170.73 45.0001C169.833 44.4381 169.08 43.6745 168.53 42.7701C167.956 41.8303 167.56 40.7931 167.36 39.7101C167.129 38.578 167.012 37.4256 167.01 36.2701C167.007 35.1111 167.145 33.956 167.42 32.8301C167.667 31.7872 168.108 30.8 168.72 29.9201C169.303 29.0937 170.065 28.4099 170.95 27.9201C171.931 27.4001 173.03 27.145 174.14 27.1801C175.386 27.1315 176.623 27.4071 177.73 27.9801C178.651 28.4966 179.43 29.2315 180 30.1201C180.599 31.08 181.019 32.1405 181.24 33.2501C181.494 34.4803 181.618 35.7339 181.61 36.9901C181.623 38.1121 181.475 39.2302 181.17 40.3101Z" fill="black"/>
<path d="M66.54 9.17993V25.8399H66.73C67.7212 24.0971 69.2072 22.6876 71 21.7899C72.5694 20.981 74.3046 20.5463 76.07 20.5199C78.0504 20.4669 80.0217 20.8068 81.87 21.5199C83.2672 22.083 84.4939 22.9997 85.43 24.1799C86.3338 25.413 86.9551 26.8298 87.25 28.3299C87.6168 30.1129 87.7944 31.9296 87.78 33.7499V53.4499H79V35.3199C79.1371 33.2734 78.7081 31.2287 77.76 29.4099C76.94 28.0999 75.47 27.4099 73.37 27.4099C70.97 27.4099 69.24 28.1299 68.16 29.5499C67.08 30.9699 66.55 33.3199 66.55 36.5499V53.4099H57.75V9.17993H66.54Z" fill="black"/>
<path d="M91.47 30.46C92.1905 28.4655 93.3293 26.6482 94.81 25.13C96.29 23.6474 98.0603 22.4864 100.01 21.72C104.422 20.1169 109.258 20.1169 113.67 21.72C115.649 22.4662 117.442 23.6346 118.924 25.144C120.405 26.6533 121.541 28.4674 122.25 30.46C123.063 32.7029 123.463 35.0746 123.43 37.46C123.46 39.8257 123.06 42.1772 122.25 44.4C121.517 46.3765 120.379 48.1783 118.91 49.69C117.42 51.1551 115.633 52.2838 113.67 53C109.247 54.5624 104.423 54.5624 100 53C98.0463 52.2554 96.2736 51.1032 94.8 49.62C93.3241 48.1135 92.1856 46.3102 91.46 44.33C90.645 42.1085 90.245 39.7561 90.28 37.39C90.2541 35.027 90.6573 32.679 91.47 30.46ZM99.47 41.17C99.6911 42.3344 100.121 43.4491 100.74 44.46C101.326 45.421 102.144 46.2188 103.12 46.78C104.26 47.3969 105.545 47.6973 106.84 47.65C108.141 47.6932 109.431 47.3931 110.58 46.78C111.572 46.226 112.405 45.4273 113 44.46C113.615 43.4472 114.045 42.3332 114.27 41.17C114.52 39.9392 114.644 38.686 114.64 37.43C114.643 36.1608 114.519 34.8946 114.27 33.65C114.05 32.4854 113.619 31.3706 113 30.36C112.393 29.3886 111.559 28.5788 110.57 28C109.425 27.3754 108.134 27.0682 106.83 27.11C105.618 27.0454 104.412 27.3097 103.338 27.8748C102.264 28.4398 101.363 29.2847 100.73 30.32C100.107 31.3285 99.6759 32.4441 99.46 33.61C99.2079 34.8542 99.0806 36.1205 99.08 37.39C99.0763 38.6597 99.2037 39.9264 99.46 41.17H99.47Z" fill="black"/>
<path d="M147.43 53.41V49H147.25C146.242 50.7424 144.729 52.1374 142.91 53C141.205 53.8038 139.345 54.2237 137.46 54.23C135.489 54.2927 133.524 53.9805 131.67 53.31C130.265 52.7699 129.035 51.8572 128.11 50.67C127.197 49.441 126.572 48.0228 126.28 46.52C125.913 44.737 125.736 42.9203 125.75 41.1V21.38H134.55V39.47C134.413 41.5197 134.842 43.5676 135.79 45.39C136.61 46.69 138.077 47.3567 140.19 47.39C142.583 47.39 144.317 46.6767 145.39 45.25C146.46 43.83 147 41.48 147 38.25V21.38H155.79V53.38L147.43 53.41Z" fill="black"/>
<path d="M202.08 9.17993V25.8399H202.26C203.257 24.0979 204.746 22.6889 206.54 21.7899C208.109 20.981 209.845 20.5463 211.61 20.5199C213.59 20.4669 215.562 20.8068 217.41 21.5199C218.814 22.0673 220.051 22.9701 221 24.1399C221.903 25.3745 222.527 26.7904 222.83 28.2899C223.193 30.0733 223.368 31.89 223.35 33.7099V53.4099H214.56V35.3199C214.692 33.2737 214.264 31.2302 213.32 29.4099C212.493 28.0766 211.027 27.4099 208.92 27.4099C206.52 27.4099 204.79 28.1299 203.72 29.5499C202.65 30.9699 202.11 33.3199 202.11 36.5499V53.4099H193.31V9.17993H202.08Z" fill="black"/>
<path d="M290.46 30.46C291.173 28.4756 292.305 26.668 293.778 25.1599C295.252 23.6518 297.033 22.4786 299 21.72C303.412 20.1169 308.248 20.1169 312.66 21.72C314.637 22.4703 316.427 23.6401 317.909 25.1489C319.39 26.6578 320.526 28.4697 321.24 30.46C322.053 32.7029 322.453 35.0746 322.42 37.46C322.45 39.8257 322.05 42.1772 321.24 44.4C320.508 46.3794 319.366 48.182 317.89 49.69C316.408 51.1559 314.628 52.2849 312.67 53C308.247 54.5624 303.423 54.5624 299 53C297.045 52.2579 295.272 51.1053 293.8 49.62C292.324 48.112 291.182 46.3094 290.45 44.33C289.643 42.1066 289.247 39.7551 289.28 37.39C289.256 35.028 289.655 32.6809 290.46 30.46ZM298.46 41.17C298.685 42.3332 299.115 43.4472 299.73 44.46C300.322 45.4192 301.144 46.2164 302.12 46.78C303.26 47.3969 304.545 47.6973 305.84 47.65C307.141 47.6932 308.431 47.3931 309.58 46.78C310.569 46.2232 311.402 45.4251 312 44.46C312.615 43.4472 313.045 42.3332 313.27 41.17C313.52 39.9392 313.644 38.686 313.64 37.43C313.643 36.1608 313.519 34.8946 313.27 33.65C313.05 32.4854 312.619 31.3706 312 30.36C311.39 29.3908 310.557 28.5816 309.57 28C308.425 27.3754 307.134 27.0682 305.83 27.11C304.532 27.0638 303.246 27.3715 302.11 28C301.145 28.578 300.326 29.3721 299.72 30.32C299.101 31.3306 298.67 32.4454 298.45 33.61C298.206 34.8553 298.082 36.1211 298.08 37.39C298.078 38.6591 298.202 39.9253 298.45 41.17H298.46Z" fill="black"/>
<path d="M358.73 9.17993V32.9099L369.81 21.3799H380.22L368.14 33.1499L381.59 53.4099H370.93L362.14 39.0999L358.73 42.3799V53.3799H349.93V9.17993H358.73Z" fill="black"/>
<path d="M388.09 45.4499C388.465 46.1107 388.98 46.6809 389.6 47.1199C390.249 47.5768 390.973 47.9153 391.74 48.1199C392.56 48.3299 393.404 48.4341 394.25 48.4299C394.906 48.4279 395.56 48.3541 396.2 48.2099C396.851 48.079 397.478 47.8497 398.06 47.5299C398.611 47.2275 399.087 46.8035 399.45 46.2899C399.851 45.7027 400.048 45 400.01 44.2899C400.01 42.9699 399.13 41.9799 397.38 41.2899C394.984 40.4487 392.531 39.7804 390.04 39.2899C388.76 38.9999 387.51 38.6599 386.29 38.2899C385.127 37.9465 384.019 37.438 383 36.7799C382.064 36.1565 381.281 35.3291 380.71 34.3599C380.101 33.2747 379.8 32.0437 379.84 30.7999C379.765 29.0272 380.184 27.2685 381.05 25.7199C381.828 24.4211 382.927 23.3435 384.24 22.5899C385.638 21.8062 387.16 21.2684 388.74 20.9999C390.412 20.6896 392.109 20.5356 393.81 20.5399C395.505 20.5341 397.197 20.6982 398.86 21.0299C400.405 21.3263 401.885 21.8951 403.23 22.7099C404.515 23.4964 405.605 24.5629 406.42 25.8299C407.327 27.3221 407.849 29.0161 407.94 30.7599H399.58C399.597 30.0671 399.428 29.3824 399.09 28.7773C398.753 28.1722 398.259 27.6689 397.66 27.3199C396.389 26.6944 394.986 26.3856 393.57 26.4199C393.032 26.4219 392.495 26.4519 391.96 26.5099C391.416 26.5668 390.883 26.705 390.38 26.9199C389.908 27.115 389.493 27.4243 389.17 27.8199C388.822 28.2667 388.648 28.8245 388.68 29.3899C388.667 29.7544 388.737 30.1172 388.886 30.4501C389.035 30.783 389.259 31.0772 389.54 31.3099C390.207 31.8566 390.975 32.2677 391.8 32.5199C392.846 32.8612 393.911 33.1416 394.99 33.3599C396.19 33.6132 397.41 33.8832 398.65 34.1699C399.915 34.4503 401.164 34.8008 402.39 35.2199C403.549 35.6015 404.644 36.1543 405.64 36.8599C406.584 37.5274 407.369 38.3946 407.94 39.3999C408.554 40.5518 408.854 41.8452 408.81 43.1499C408.893 44.8822 408.512 46.6053 407.705 48.1403C406.897 49.6754 405.694 50.9666 404.22 51.8799C402.791 52.7763 401.207 53.397 399.55 53.7099C397.785 54.0586 395.989 54.2327 394.19 54.2299C392.359 54.2347 390.533 54.0504 388.74 53.6799C387.06 53.3435 385.454 52.7067 384 51.7999C382.497 50.8799 381.259 49.5851 380.407 48.0424C379.555 46.4997 379.118 44.7621 379.14 42.9999H387.5C387.473 43.8547 387.677 44.7011 388.09 45.4499Z" fill="black"/>
<path d="M241.93 46.84C240.873 46.9688 239.806 46.7055 238.93 46.1C238.325 45.2243 238.061 44.1569 238.19 43.1V27.27H243.1L246.1 21.38H238.2V11.78H229.4V21.38H225L222 27.26H229.39V46.16C229.332 47.5071 229.611 48.8473 230.2 50.06C230.702 51.0187 231.465 51.816 232.4 52.36C233.398 52.9152 234.489 53.2814 235.62 53.44C236.901 53.6328 238.195 53.7264 239.49 53.72C240.36 53.72 241.24 53.72 242.15 53.66C242.981 53.6249 243.809 53.5414 244.63 53.41V46.59C244.201 46.6806 243.767 46.7441 243.33 46.78C242.9 46.82 242.43 46.84 241.93 46.84Z" fill="black"/>
<path d="M52.27 46.84C51.2132 46.9678 50.1461 46.7046 49.27 46.1C48.6645 45.2243 48.4012 44.1569 48.53 43.1V27.27H53.06L56.06 21.38H48.55V11.78H39.76V21.38H35.35L32.35 27.26H39.75V46.16C39.6898 47.5062 39.9646 48.8463 40.55 50.06C41.055 51.0165 41.8169 51.8131 42.75 52.36C43.7575 52.9172 44.8594 53.2834 46 53.44C47.2809 53.6328 48.5747 53.7264 49.87 53.72C50.74 53.72 51.63 53.72 52.53 53.66C53.3575 53.6245 54.1822 53.5411 55 53.41V46.59C54.5711 46.6806 54.1369 46.7441 53.7 46.78C53.24 46.82 52.76 46.84 52.27 46.84Z" fill="black"/>
<path d="M343.07 20.52C335.68 20.52 332.85 27.33 332.85 27.33H332.73V21.38H324.37V53.38H333.16V40C333.16 32.2 334.68 28.72 341.33 28.72C342.527 28.7027 343.709 28.9845 344.77 29.54L348.54 22.14C346.916 21.0739 345.013 20.5104 343.07 20.52Z" fill="black"/>
<path d="M281.9 21.39L276.01 43.06H275.89L270.44 21.39H261.89L256.56 43.13H256.44L250.56 21.39L244.83 32.62L251.43 53.41H260.53L265.98 31.91H266.1L271.8 53.41H280.85L290.94 21.39H281.9Z" fill="black"/>
</svg>
