<svg width="409" height="66" viewBox="0 0 409 66" fill="none" xmlns="http://www.w3.org/2000/svg">
<g clip-path="url(#clip0_4_16)">
<path d="M27.21 0L0 53.41H12.64L39.86 0H27.21Z" fill="black"/>
<path d="M183.81 21.38L181.63 25.65H181.5C180.599 23.9452 179.205 22.5513 177.5 21.65C175.777 20.8581 173.896 20.4715 172 20.52C169.955 20.4771 167.929 20.9227 166.09 21.82C164.411 22.652 162.939 23.8476 161.78 25.32C160.592 26.8333 159.7 28.5567 159.15 30.4C158.545 32.3422 158.242 34.3658 158.25 36.4C158.236 38.4901 158.488 40.5734 159 42.6C159.467 44.4592 160.3 46.2067 161.45 47.74C162.578 49.2189 164.042 50.4082 165.72 51.21C167.663 52.101 169.783 52.5355 171.92 52.48C173.833 52.4892 175.725 52.0761 177.46 51.27C179.187 50.4982 180.614 49.1808 181.52 47.52H181.64V51.74C181.64 56.74 179.3 59.6 174.64 59.6C169.98 59.6 167.5 57.6 166.18 55.96L163 62.25C163 62.25 166.6 65.49 173.41 65.49C184.7 65.49 190 60 190 51.36V21.36L183.81 21.38ZM181.17 40.31C180.875 41.326 180.401 42.281 179.77 43.13C179.145 43.9632 178.342 44.6464 177.42 45.13C176.403 45.6395 175.277 45.8935 174.14 45.87C172.943 45.9149 171.759 45.6127 170.73 45C169.833 44.438 169.08 43.6744 168.53 42.77C167.956 41.8302 167.56 40.793 167.36 39.71C167.129 38.5779 167.012 37.4255 167.01 36.27C167.007 35.111 167.145 33.9559 167.42 32.83C167.667 31.7871 168.108 30.7999 168.72 29.92C169.303 29.0936 170.065 28.4098 170.95 27.92C171.931 27.4 173.03 27.1449 174.14 27.18C175.386 27.1314 176.623 27.407 177.73 27.98C178.651 28.4965 179.43 29.2314 180 30.12C180.599 31.0799 181.019 32.1404 181.24 33.25C181.494 34.4802 181.618 35.7338 181.61 36.99C181.623 38.112 181.475 39.2301 181.17 40.31Z" fill="black"/>
<path d="M66.54 9.17999V25.84H66.73C67.7212 24.0972 69.2072 22.6877 71 21.79C72.5694 20.9811 74.3046 20.5464 76.07 20.52C78.0504 20.467 80.0217 20.8069 81.87 21.52C83.2672 22.0831 84.4939 22.9998 85.43 24.18C86.3338 25.4131 86.9551 26.8299 87.25 28.33C87.6168 30.113 87.7944 31.9297 87.78 33.75V53.45H79V35.32C79.1371 33.2735 78.7081 31.2288 77.76 29.41C76.94 28.1 75.47 27.41 73.37 27.41C70.97 27.41 69.24 28.13 68.16 29.55C67.08 30.97 66.55 33.32 66.55 36.55V53.41H57.75V9.17999H66.54Z" fill="black"/>
<path d="M91.47 30.46C92.1905 28.4655 93.3293 26.6482 94.81 25.13C96.29 23.6474 98.0603 22.4864 100.01 21.72C104.422 20.1169 109.258 20.1169 113.67 21.72C115.649 22.4662 117.442 23.6346 118.924 25.144C120.405 26.6533 121.541 28.4674 122.25 30.46C123.063 32.7029 123.463 35.0746 123.43 37.46C123.46 39.8257 123.06 42.1772 122.25 44.4C121.517 46.3765 120.379 48.1783 118.91 49.69C117.42 51.1551 115.633 52.2838 113.67 53C109.247 54.5624 104.423 54.5624 100 53C98.0463 52.2554 96.2736 51.1032 94.8 49.62C93.3241 48.1135 92.1856 46.3102 91.46 44.33C90.645 42.1085 90.245 39.7561 90.28 37.39C90.2541 35.027 90.6573 32.679 91.47 30.46ZM99.47 41.17C99.6911 42.3344 100.121 43.4491 100.74 44.46C101.326 45.421 102.144 46.2188 103.12 46.78C104.26 47.3969 105.545 47.6973 106.84 47.65C108.141 47.6932 109.431 47.3931 110.58 46.78C111.572 46.226 112.405 45.4273 113 44.46C113.615 43.4472 114.045 42.3332 114.27 41.17C114.52 39.9392 114.644 38.686 114.64 37.43C114.643 36.1608 114.519 34.8946 114.27 33.65C114.05 32.4854 113.619 31.3706 113 30.36C112.393 29.3886 111.559 28.5788 110.57 28C109.425 27.3754 108.134 27.0682 106.83 27.11C105.618 27.0454 104.412 27.3097 103.338 27.8748C102.264 28.4398 101.363 29.2847 100.73 30.32C100.107 31.3285 99.6759 32.4441 99.46 33.61C99.2079 34.8542 99.0806 36.1205 99.08 37.39C99.0763 38.6597 99.2037 39.9264 99.46 41.17H99.47Z" fill="black"/>
<path d="M147.43 53.41V49H147.25C146.242 50.7424 144.729 52.1374 142.91 53C141.205 53.8038 139.345 54.2237 137.46 54.23C135.489 54.2927 133.524 53.9805 131.67 53.31C130.265 52.7699 129.035 51.8572 128.11 50.67C127.197 49.441 126.572 48.0228 126.28 46.52C125.913 44.737 125.736 42.9203 125.75 41.1V21.38H134.55V39.47C134.413 41.5197 134.842 43.5676 135.79 45.39C136.61 46.69 138.077 47.3567 140.19 47.39C142.583 47.39 144.317 46.6767 145.39 45.25C146.46 43.83 147 41.48 147 38.25V21.38H155.79V53.38L147.43 53.41Z" fill="black"/>
<path d="M202.08 9.17999V25.84H202.26C203.257 24.098 204.746 22.689 206.54 21.79C208.109 20.9811 209.845 20.5464 211.61 20.52C213.59 20.467 215.562 20.8069 217.41 21.52C218.814 22.0674 220.051 22.9702 221 24.14C221.903 25.3746 222.527 26.7905 222.83 28.29C223.193 30.0734 223.368 31.8901 223.35 33.71V53.41H214.56V35.32C214.692 33.2738 214.264 31.2303 213.32 29.41C212.493 28.0767 211.027 27.41 208.92 27.41C206.52 27.41 204.79 28.13 203.72 29.55C202.65 30.97 202.11 33.32 202.11 36.55V53.41H193.31V9.17999H202.08Z" fill="black"/>
<path d="M290.46 30.46C291.173 28.4756 292.305 26.668 293.778 25.1599C295.252 23.6518 297.033 22.4786 299 21.72C303.412 20.1169 308.248 20.1169 312.66 21.72C314.637 22.4703 316.427 23.6401 317.909 25.1489C319.39 26.6578 320.526 28.4697 321.24 30.46C322.053 32.7029 322.453 35.0746 322.42 37.46C322.45 39.8257 322.05 42.1772 321.24 44.4C320.508 46.3794 319.366 48.182 317.89 49.69C316.408 51.1559 314.628 52.2849 312.67 53C308.247 54.5624 303.423 54.5624 299 53C297.045 52.2579 295.272 51.1053 293.8 49.62C292.324 48.112 291.182 46.3094 290.45 44.33C289.643 42.1066 289.247 39.7551 289.28 37.39C289.256 35.028 289.655 32.6809 290.46 30.46ZM298.46 41.17C298.685 42.3332 299.115 43.4472 299.73 44.46C300.322 45.4192 301.144 46.2164 302.12 46.78C303.26 47.3969 304.545 47.6973 305.84 47.65C307.141 47.6932 308.431 47.3931 309.58 46.78C310.569 46.2232 311.402 45.4251 312 44.46C312.615 43.4472 313.045 42.3332 313.27 41.17C313.52 39.9392 313.644 38.686 313.64 37.43C313.643 36.1608 313.519 34.8946 313.27 33.65C313.05 32.4854 312.619 31.3706 312 30.36C311.39 29.3908 310.557 28.5816 309.57 28C308.425 27.3754 307.134 27.0682 305.83 27.11C304.532 27.0638 303.246 27.3715 302.11 28C301.145 28.578 300.326 29.3721 299.72 30.32C299.101 31.3306 298.67 32.4454 298.45 33.61C298.206 34.8553 298.082 36.1211 298.08 37.39C298.078 38.6591 298.202 39.9253 298.45 41.17H298.46Z" fill="black"/>
<path d="M358.73 9.17999V32.91L369.81 21.38H380.22L368.14 33.15L381.59 53.41H370.93L362.14 39.1L358.73 42.38V53.38H349.93V9.17999H358.73Z" fill="black"/>
<path d="M388.09 45.45C388.465 46.1108 388.98 46.681 389.6 47.12C390.249 47.5769 390.973 47.9154 391.74 48.12C392.56 48.33 393.404 48.4342 394.25 48.43C394.906 48.428 395.56 48.3542 396.2 48.21C396.851 48.0791 397.478 47.8498 398.06 47.53C398.611 47.2276 399.087 46.8036 399.45 46.29C399.851 45.7028 400.048 45.0001 400.01 44.29C400.01 42.97 399.13 41.98 397.38 41.29C394.984 40.4488 392.531 39.7805 390.04 39.29C388.76 39 387.51 38.66 386.29 38.29C385.127 37.9466 384.019 37.4381 383 36.78C382.064 36.1566 381.281 35.3292 380.71 34.36C380.101 33.2748 379.8 32.0438 379.84 30.8C379.765 29.0273 380.184 27.2686 381.05 25.72C381.828 24.4212 382.927 23.3436 384.24 22.59C385.638 21.8063 387.16 21.2685 388.74 21C390.412 20.6897 392.109 20.5357 393.81 20.54C395.505 20.5342 397.197 20.6983 398.86 21.03C400.405 21.3264 401.885 21.8952 403.23 22.71C404.515 23.4965 405.605 24.563 406.42 25.83C407.327 27.3222 407.849 29.0162 407.94 30.76H399.58C399.597 30.0672 399.428 29.3825 399.09 28.7774C398.753 28.1723 398.259 27.669 397.66 27.32C396.389 26.6945 394.986 26.3857 393.57 26.42C393.032 26.422 392.495 26.452 391.96 26.51C391.416 26.5669 390.883 26.7051 390.38 26.92C389.908 27.1151 389.493 27.4244 389.17 27.82C388.822 28.2668 388.648 28.8246 388.68 29.39C388.667 29.7545 388.737 30.1173 388.886 30.4502C389.035 30.7831 389.259 31.0773 389.54 31.31C390.207 31.8567 390.975 32.2678 391.8 32.52C392.846 32.8613 393.911 33.1417 394.99 33.36C396.19 33.6133 397.41 33.8833 398.65 34.17C399.915 34.4504 401.164 34.8009 402.39 35.22C403.549 35.6016 404.644 36.1544 405.64 36.86C406.584 37.5275 407.369 38.3947 407.94 39.4C408.554 40.5519 408.854 41.8453 408.81 43.15C408.893 44.8823 408.512 46.6054 407.705 48.1404C406.897 49.6755 405.694 50.9667 404.22 51.88C402.791 52.7764 401.207 53.3971 399.55 53.71C397.785 54.0587 395.989 54.2328 394.19 54.23C392.359 54.2348 390.533 54.0505 388.74 53.68C387.06 53.3436 385.454 52.7068 384 51.8C382.497 50.88 381.259 49.5852 380.407 48.0425C379.555 46.4998 379.118 44.7622 379.14 43H387.5C387.473 43.8548 387.677 44.7012 388.09 45.45Z" fill="black"/>
<path d="M241.93 46.84C240.873 46.9688 239.806 46.7055 238.93 46.1C238.325 45.2243 238.061 44.1569 238.19 43.1V27.27H243.1L246.1 21.38H238.2V11.78H229.4V21.38H225L222 27.26H229.39V46.16C229.332 47.5071 229.611 48.8473 230.2 50.06C230.702 51.0187 231.465 51.816 232.4 52.36C233.398 52.9152 234.489 53.2814 235.62 53.44C236.901 53.6328 238.195 53.7264 239.49 53.72C240.36 53.72 241.24 53.72 242.15 53.66C242.981 53.6249 243.809 53.5414 244.63 53.41V46.59C244.201 46.6806 243.767 46.7441 243.33 46.78C242.9 46.82 242.43 46.84 241.93 46.84Z" fill="black"/>
<path d="M52.27 46.84C51.2132 46.9678 50.1461 46.7046 49.27 46.1C48.6645 45.2243 48.4012 44.1569 48.53 43.1V27.27H53.06L56.06 21.38H48.55V11.78H39.76V21.38H35.35L32.35 27.26H39.75V46.16C39.6898 47.5062 39.9646 48.8463 40.55 50.06C41.055 51.0165 41.8169 51.8131 42.75 52.36C43.7575 52.9172 44.8594 53.2834 46 53.44C47.2809 53.6328 48.5747 53.7264 49.87 53.72C50.74 53.72 51.63 53.72 52.53 53.66C53.3575 53.6245 54.1822 53.5411 55 53.41V46.59C54.5711 46.6806 54.1369 46.7441 53.7 46.78C53.24 46.82 52.76 46.84 52.27 46.84Z" fill="black"/>
<path d="M343.07 20.52C335.68 20.52 332.85 27.33 332.85 27.33H332.73V21.38H324.37V53.38H333.16V40C333.16 32.2 334.68 28.72 341.33 28.72C342.527 28.7027 343.709 28.9845 344.77 29.54L348.54 22.14C346.916 21.0739 345.013 20.5104 343.07 20.52Z" fill="black"/>
<path d="M281.9 21.39L276.01 43.06H275.89L270.44 21.39H261.89L256.56 43.13H256.44L250.56 21.39L244.83 32.62L251.43 53.41H260.53L265.98 31.91H266.1L271.8 53.41H280.85L290.94 21.39H281.9Z" fill="black"/>
</g>
<defs>
<clipPath id="clip0_4_16">
<rect width="408.81" height="65.49" fill="white"/>
</clipPath>
</defs>
</svg>
